<?xml version="1.0" encoding="utf-8"?>
<!-- Generator: Adobe Illustrator 22.1.0, SVG Export Plug-In . SVG Version: 6.00 Build 0)  -->
<svg version="1.1" id="Layer_1" xmlns="http://www.w3.org/2000/svg" xmlns:xlink="http://www.w3.org/1999/xlink" x="0px" y="0px"
	 viewBox="0 0 250 250" style="enable-background:new 0 0 250 250;" xml:space="preserve">
<style type="text/css">
	.st0{clip-path:url(#SVGID_2_);}
	.st1{fill:#006239;}
	.st2{fill:#FABC0C;}
	.st3{fill:#FFFFFF;}
	.st4{fill:#006239;stroke:#006239;stroke-linecap:round;stroke-linejoin:round;}
	.st5{fill:#008A2E;stroke:#FFFFFF;stroke-linecap:round;stroke-linejoin:round;}
	.st6{fill:#006239;stroke:#FFFFFF;stroke-linecap:round;stroke-linejoin:round;}
	.st7{fill:#008A2E;stroke:#008A2E;stroke-linecap:round;stroke-linejoin:round;}
</style>
<g>
	<defs>
		<circle id="SVGID_1_" cx="125" cy="125" r="119"/>
	</defs>
	<clipPath id="SVGID_2_">
		<use xlink:href="#SVGID_1_"  style="overflow:visible;"/>
	</clipPath>
	<g class="st0">
		
			
		<rect id="rect236_1_" x="-55.8" y="4" class="st1" width="361.5" height="241"/>
		<g id="stars_1_" transform="matrix(0.61850381,0,0,0.61850381,28.771258,4.1396658e-5)">
			<polygon id="polygon239_1_" class="st2" points="157.1,35.2 155.6,31.4 154.1,35.2 149.3,36.7 149.3,36.7 153.2,38.7 151.7,43.3 
				155.6,40.5 159.4,43.3 158,38.7 161.8,35.2 			"/>
			<polygon id="polygon241_1_" class="st2" points="176.6,37.2 175.7,32.5 173.7,36.9 168.9,36.3 168.9,36.3 172.4,39.5 170.4,43.9 
				174.6,41.6 178.1,44.8 177.2,40.1 181.3,37.8 			"/>
			<polygon id="polygon243_1_" class="st2" points="195.8,40.8 195.5,36.1 192.9,40.1 188.3,39 188.3,39 191.4,42.6 188.9,46.7 
				193.3,44.9 196.4,48.6 196,43.8 200.5,42 			"/>
			<polygon id="polygon245_1_" class="st2" points="214.5,46.7 214.7,41.9 211.7,45.7 207.2,44 207.2,44 209.9,48 206.9,51.7 
				211.5,50.4 214.1,54.4 214.3,49.7 219,48.4 			"/>
			<polygon id="polygon247_1_" class="st2" points="232.3,54.7 233.1,50 229.7,53.4 225.4,51.2 225.4,51.2 227.6,55.4 224.2,58.8 
				228.9,58.1 231,62.4 231.8,57.7 236.6,56.9 			"/>
			<polygon id="polygon249_1_" class="st2" points="249.1,64.8 250.4,60.2 246.6,63.2 242.7,60.5 242.7,60.5 244.3,65 240.5,67.9 
				245.3,67.7 246.9,72.3 248.2,67.7 253,67.5 			"/>
			<polygon id="polygon251_1_" class="st2" points="264.5,76.8 266.4,72.4 262.3,74.8 258.7,71.7 258.7,71.7 259.7,76.4 255.6,78.8 
				260.4,79.3 261.5,83.9 263.4,79.5 268.1,79.9 			"/>
			<polygon id="polygon253_1_" class="st2" points="278.5,90.5 280.8,86.3 276.5,88.3 273.2,84.8 273.2,84.8 273.8,89.5 269.4,91.5 
				274.1,92.5 274.6,97.2 277,93.1 281.7,94 			"/>
			<polygon id="polygon255_1_" class="st2" points="290.7,105.7 293.5,101.9 289,103.3 284.7,99.4 284.7,99.4 284.7,104.2 
				281.6,105.7 286.2,107.2 286.2,112 288.9,108.1 293.5,109.6 			"/>
			<polygon id="polygon257_1_" class="st2" points="301.1,122.3 304.3,118.9 299.6,119.8 297.3,115.6 297.3,115.6 296.7,120.3 
				292,121.2 296.4,123.2 295.7,128 299,124.5 303.4,126.5 			"/>
			<polygon id="polygon259_1_" class="st2" points="309.4,140.1 313,137 308.3,137.3 306.5,132.9 306.5,132.9 305.3,137.5 
				300.5,137.9 304.6,140.4 303.4,145 307.1,142 311.2,144.5 			"/>
			<polygon id="polygon261_1_" class="st2" points="315.5,158.6 319.5,156 314.7,155.8 313.5,151.2 313.5,151.2 311.8,155.6 
				307,155.4 310.7,158.4 309,162.9 313,160.3 316.8,163.3 			"/>
			<polygon id="polygon263_1_" class="st2" points="319.4,177.8 323.7,175.7 319,174.9 318.3,170.1 318.3,170.1 316.1,174.4 
				311.4,173.6 314.7,177 312.5,181.2 316.8,179.1 320.1,182.5 			"/>
			<polygon id="polygon265_1_" class="st2" points="321.1,197.3 325.6,195.7 321,194.3 320.8,189.5 320.8,189.5 318.1,193.5 
				313.5,192.1 316.5,195.9 313.8,199.9 318.3,198.3 321.2,202 			"/>
			<polygon id="polygon267_1_" class="st2" points="320.4,216.8 325.1,215.7 320.7,213.9 321.1,209.1 321.1,209.1 318,212.7 
				313.5,210.8 316,214.9 312.9,218.5 317.5,217.5 320,221.6 			"/>
			<polygon id="polygon269_1_" class="st2" points="317.5,236.1 322.2,235.6 318.1,233.2 319.1,228.6 319.1,228.6 315.5,231.8 
				311.4,229.4 313.3,233.8 309.8,237 314.5,236.5 316.5,240.8 			"/>
			<polygon id="polygon271_1_" class="st2" points="312.2,255.7 317,255.7 313.2,252.2 314.7,247.7 314.7,247.7 310.8,250.4 
				307,247.6 308.4,252.1 304.5,255.7 309.3,255.7 310.7,259.5 			"/>
			<polygon id="polygon273_1_" class="st2" points="304.8,273.1 309.5,273.7 306.1,270.4 308.1,266.1 308.1,266.1 303.9,268.4 
				300.4,265.1 301.3,269.8 297.1,272.1 301.9,272.7 302.7,277.4 			"/>
			<polygon id="polygon275_1_" class="st2" points="295.3,290.2 299.9,291.4 296.9,287.7 299.4,283.6 299.4,283.6 295,285.4 
				291.9,281.7 292.2,286.5 287.8,288.3 292.4,289.5 292.7,294.2 			"/>
			<polygon id="polygon277_1_" class="st2" points="283.8,306 288.3,307.7 285.7,303.7 288.7,300 288.7,300 284.1,301.2 
				281.5,297.2 281.2,302 276.6,303.2 281.1,305 280.8,309.7 			"/>
			<polygon id="polygon279_1_" class="st2" points="270.6,320.4 274.8,322.6 272.7,318.4 276.1,315 276.1,315 271.4,315.7 
				269.3,311.4 268.5,316.1 263.7,316.8 268,319 267.2,323.8 			"/>
			<polygon id="polygon281_1_" class="st2" points="255.8,333.2 259.7,335.9 258.1,331.4 261.9,328.4 261.9,328.4 257.1,328.6 
				255.5,324.1 254.2,328.6 249.4,328.8 253.3,331.5 252,336.1 			"/>
			<polygon id="polygon283_1_" class="st2" points="239.5,344.1 243.1,347.2 242.1,342.6 246.2,340.1 246.2,340.1 241.4,339.7 
				240.4,335 238.5,339.4 233.7,339 237.3,342.1 235.4,346.5 			"/>
			<polygon id="polygon285_1_" class="st2" points="222.1,353 225.3,356.5 224.8,351.8 229.2,349.8 229.2,349.8 224.5,348.8 
				224,344.1 221.6,348.2 216.9,347.2 220.1,350.8 217.7,354.9 			"/>
			<polygon id="polygon287_1_" class="st2" points="203.8,359.8 206.2,363.7 206.2,358.9 211.2,357.5 211.2,357.5 207.7,355.9 
				207.7,351.1 203.8,355 199.3,353.4 202.1,357.3 199.2,361.2 			"/>
			<polygon id="polygon289_1_" class="st2" points="184.7,364.3 187,368.5 187.6,363.8 192.4,362.9 192.4,362.9 188,360.8 
				188.7,356.1 185.4,359.6 181.1,357.5 183.3,361.7 180,365.2 			"/>
			<polygon id="polygon291_1_" class="st2" points="165.3,366.6 167.1,371 168.3,366.4 173.1,366.1 173.1,366.1 169,363.5 
				170.2,358.9 166.5,362 162.5,359.4 164.2,363.8 160.6,366.9 			"/>
			<polygon id="polygon293_1_" class="st2" points="145.8,366.6 147,371.2 148.7,366.8 153.5,367 153.5,367 149.8,364 151.5,359.5 
				147.5,362.1 143.8,359.1 145,363.7 141,366.4 			"/>
			<polygon id="polygon295_1_" class="st2" points="126.4,364.3 127,369 129.3,364.8 134,365.6 134,365.6 130.7,362.2 132.9,358 
				128.6,360.1 125.3,356.6 125.9,361.4 121.6,363.5 			"/>
			<polygon id="polygon297_1_" class="st2" points="107.3,359.7 107.4,364.5 110.2,360.6 114.7,362 114.7,362 111.9,358.1 
				114.6,354.2 110.1,355.8 107.2,352 107.3,356.8 102.8,358.3 			"/>
			<polygon id="polygon299_1_" class="st2" points="89,352.9 88.5,357.7 91.7,354.1 96.1,356 96.1,356 93.7,351.9 96.8,348.3 
				92.2,349.3 89.7,345.2 89.3,350 84.6,351 			"/>
			<polygon id="polygon301_1_" class="st2" points="71.6,344 70.6,348.6 74.1,345.5 78.3,347.9 78.3,347.9 76.4,343.5 79.9,340.3 
				75.2,340.8 73.3,336.4 72.2,341.1 67.5,341.6 			"/>
			<polygon id="polygon303_1_" class="st2" points="55.4,332.5 53.8,337 57.7,334.2 61.5,337.1 61.5,337.1 60.2,332.6 64.1,329.8 
				59.3,329.7 57.9,325.1 56.3,329.7 51.6,329.6 			"/>
			<polygon id="polygon305_1_" class="st2" points="40.5,320.3 38.5,324.6 42.7,322.4 46.1,325.7 46.1,325.7 45.3,321 49.5,318.7 
				44.8,318.1 43.9,313.3 41.8,317.7 37.1,317 			"/>
			<polygon id="polygon307_1_" class="st2" points="27.3,305.9 24.7,310 29.2,308.2 32.2,311.9 32.2,311.9 31.9,307.1 36.4,305.4 
				31.8,304.2 31.5,299.4 28.9,303.4 24.3,302.2 			"/>
			<polygon id="polygon309_1_" class="st2" points="15.9,290.1 12.8,293.8 17.5,292.6 20,296.6 20,296.6 20.3,291.8 25,290.6 
				20.5,288.9 20.8,284.1 17.7,287.8 13.3,286 			"/>
			<polygon id="polygon311_1_" class="st2" points="6.4,273 2.9,276.3 7.7,275.6 9.7,279.9 9.7,279.9 10.6,275.2 15.3,274.6 
				11.1,272.3 12,267.6 8.5,270.9 4.3,268.7 			"/>
			<polygon id="polygon313_1_" class="st2" points="-1,254.8 -4.8,257.7 -0.1,257.6 1.5,262.2 1.5,262.2 2.9,257.6 7.7,257.5 
				3.8,254.7 5.2,250.2 1.3,253 -2.6,250.3 			"/>
			<polygon id="polygon315_1_" class="st2" points="-6.2,236 -10.4,238.4 -5.6,238.9 -4.6,243.6 -4.6,243.6 -2.7,239.2 2.1,239.7 
				-1.5,236.5 0.5,232.1 -3.7,234.5 -7.2,231.3 			"/>
			<polygon id="polygon317_1_" class="st2" points="-9.2,216.8 -13.5,218.7 -8.8,219.7 -8.3,224.5 -8.3,224.5 -5.9,220.3 
				-1.3,221.3 -4.5,217.8 -2.1,213.6 -6.5,215.6 -9.7,212 			"/>
			<polygon id="polygon319_1_" class="st2" points="-9.8,197.1 -14.4,198.5 -9.9,200.1 -10,204.9 -10,204.9 -7.1,201.1 -2.6,202.6 
				-5.3,198.7 -2.4,194.9 -7,196.3 -9.7,192.3 			"/>
			<polygon id="polygon321_1_" class="st2" points="-8.2,177.6 -12.9,178.5 -8.6,180.6 -9.3,185.3 -9.3,185.3 -5.9,181.9 -1.6,184 
				-3.9,179.7 -0.5,176.3 -5.3,177.1 -7.5,172.9 			"/>
			<polygon id="polygon323_1_" class="st2" points="-4.2,158.5 -9,158.7 -5,161.3 -6.2,166 -6.2,166 -2.5,162.9 1.5,165.5 
				-0.2,161.1 3.5,158 -1.3,158.3 -3,153.8 			"/>
			<polygon id="polygon325_1_" class="st2" points="1.9,139.9 -2.8,139.6 0.9,142.7 -0.9,147.1 -0.9,147.1 3.1,144.6 6.8,147.6 
				5.6,143 9.7,140.4 4.9,140.1 3.7,135.5 			"/>
			<polygon id="polygon327_1_" class="st2" points="10.3,122.2 5.6,121.4 8.9,124.8 6.6,129 6.6,129 10.9,127 14.2,130.4 
				13.6,125.7 17.9,123.6 13.2,122.7 12.6,118 			"/>
			<polygon id="polygon329_1_" class="st2" points="20.7,105.6 16.1,104.2 19,108.1 16.2,112 16.2,112 20.7,110.4 23.4,114.3 
				23.4,109.5 28.1,107.9 24.9,106.5 24.9,101.7 			"/>
			<polygon id="polygon331_1_" class="st2" points="32.9,90.4 28.5,88.4 30.9,92.6 27.7,96.2 27.7,96.2 32.4,95.1 34.8,99.3 
				35.3,94.5 40,93.5 35.6,91.6 36.1,86.8 			"/>
			<polygon id="polygon333_1_" class="st2" points="46.8,76.7 42.7,74.2 44.6,78.6 41,81.8 41,81.8 45.8,81.4 47.7,85.8 48.7,81.1 
				53.5,80.6 49.4,78.2 50.4,73.5 			"/>
			<polygon id="polygon335_1_" class="st2" points="62.3,64.7 58.5,61.8 59.9,66.4 55.9,69.1 55.9,69.1 60.7,69.2 62.1,73.8 
				63.7,69.3 68.5,69.4 64.7,66.5 66.2,62 			"/>
			<polygon id="polygon337_1_" class="st2" points="79.1,54.6 75.6,51.3 76.5,56 72.2,58.3 72.2,58.3 77,58.9 77.8,63.7 79.9,59.4 
				84.6,60 81.2,56.7 83.3,52.4 			"/>
			<polygon id="polygon339_1_" class="st2" points="96.9,46.6 93.9,42.9 94.2,47.7 89.7,49.4 89.7,49.4 94.3,50.6 94.6,55.4 
				97.2,51.4 101.8,52.7 98.8,48.9 101.4,44.9 			"/>
			<polygon id="polygon341_1_" class="st2" points="115.6,40.8 113.1,36.8 112.7,41.5 108.1,42.7 108.1,42.7 112.5,44.5 112.2,49.3 
				115.3,45.6 119.7,47.4 117.2,43.3 120.2,39.6 			"/>
			<polygon id="polygon343_1_" class="st2" points="134.8,37.2 132.8,32.9 131.9,37.6 127.1,38.2 127.1,38.2 131.3,40.5 130.5,45.2 
				133.9,41.9 138.1,44.2 136.1,39.9 139.6,36.6 			"/>
		</g>
		<polygon id="sun_1_" class="st3" points="217.2,144.1 170.2,137.1 214.2,154.9 168.4,142.4 210,165.3 166,147.4 204.6,175.1 
			163,152.2 198.1,184.2 159.5,156.5 190.5,192.5 155.4,160.4 182,199.9 151,163.9 172.7,206.1 146.2,166.7 162.7,211.2 141,169 
			152.2,215.2 135.7,170.6 141.3,217.8 130.1,171.6 130.1,219.1 124.5,171.9 118.9,219.1 118.9,171.6 107.8,217.8 113.4,170.6 
			96.9,215.2 108.1,169 86.4,211.2 102.9,166.7 76.4,206.1 98.1,163.9 67.1,199.9 93.6,160.5 58.6,192.5 89.6,156.5 51,184.3 
			86.1,152.2 44.5,175.1 83.1,147.4 39,165.3 80.7,142.4 34.8,154.9 78.9,137.1 31.9,144.1 77.7,131.6 30.2,133 77.2,126 
			29.9,121.8 77.4,120.4 30.9,110.6 78.2,114.8 33.2,99.6 79.7,109.4 36.8,89 81.8,104.2 41.6,78.9 84.5,99.3 47.6,69.4 87.8,94.8 
			54.7,60.7 91.6,90.6 62.7,52.8 95.8,86.9 71.6,46 100.5,83.8 81.3,40.3 105.4,81.3 91.6,35.8 110.7,79.3 102.3,32.5 116.2,78 
			113.3,30.6 121.7,77.3 124.5,29.9 127.3,77.3 127.3,77.3 135.7,30.6 132.9,78 146.8,32.5 138.4,79.3 157.5,35.8 143.6,81.3 
			167.8,40.3 148.6,83.8 177.4,46 153.3,86.9 186.4,52.8 157.5,90.6 194.4,60.7 161.3,94.7 201.5,69.4 164.6,99.3 207.5,78.9 
			167.3,104.2 212.3,89 169.4,109.4 215.9,99.6 170.9,114.8 218.2,110.6 171.7,120.4 219.2,121.8 171.9,126 218.9,133 171.4,131.6 
					"/>
		<g id="africa_1_" transform="matrix(0.61850381,0,0,0.61850381,28.771258,4.1396658e-5)">
			<path id="path347_1_"  class="st4" d="M132.5,205.4c0,0-0.2-0.1-0.3-0.1l0,0
				c-0.2-0.1-0.4-0.2-0.5-0.3l0,0c-0.1-0.1-0.2-0.2-0.2-0.4l0,0c0-0.1,0-0.2,0.1-0.3l0,0c0.1-0.2,0.3-0.3,0.4-0.3l0,0
				c0.1-0.1,0.1-0.1,0.2-0.3l0,0c0.1-0.3,0.4-0.7,0.8-0.8l0,0c0.1,0,0.1,0,0.2,0l0,0c0.1,0,0.3,0.1,0.4,0.2l0,0
				c0.1,0.1,0.1,0.3,0.1,0.4l0,0c0,0.7-0.5,1.6-0.7,1.8l0,0c0,0,0,0,0,0l0,0c0,0,0,0,0,0l0,0c-0.1,0.1-0.1,0.1-0.2,0.1l0,0
				C132.6,205.4,132.6,205.4,132.5,205.4L132.5,205.4L132.5,205.4z"/>
			<polygon id="polygon349_1_" class="st5" points="239.3,295.6 239.3,295.6 239.3,295.6 			"/>
			<path id="path351_1_"  class="st6" d="M262.9,267.4c-0.1-1.8-0.5-3.7-1.2-5.3l-0.1-0.3l-0.2,0.1
				c0,0,0,0,0,0c-0.1-0.1-0.1-0.1-0.2-0.2c0,0,0,0,0,0c0,0,0,0,0,0c0-0.1,0-0.1,0.1-0.2c0-0.1,0-0.2-0.1-0.3c0,0-0.1-0.3-0.2-0.5
				c-0.1-0.1-0.1-0.2-0.2-0.3c0,0-0.1-0.1-0.1-0.1c0.1-0.1,0.1-0.2,0.1-0.2c0-0.2-0.1-0.3-0.2-0.5c-0.1-0.1-0.2-0.2-0.5-0.2
				c-0.1,0-0.3,0.1-0.3,0.2c-0.1,0.1-0.1,0.2-0.1,0.4c0,0.1,0.3,0.2,0.3,0.2v0c0,0-0.4,0.4-0.7,0.6c-0.2,0.2-0.6,0.4-0.6,0.4
				c0,0,0,0,0,0c0,0,0,0-0.1,0l-0.5,0.2l0.5,0.2c0.2,0.1,0.3,0.3,0.3,0.6c0,0.4-0.2,0.9-0.3,1.3c-0.1,0.4-0.2,0.7-0.3,0.9
				c-0.1,0.1-0.2,0.2-0.7,0.3l0.9,0v0c-1.1-0.3-1.2-0.5-1.4-0.7l-0.2-0.2l-0.2,0.2c-0.2,0.1-0.3,0.4-0.3,0.6c0,0.2,0.1,0.3,0.2,0.4
				c0.1,0.1,0.5-0.7,0.5-0.7s-0.1,0-0.1,0c0,0,0,0,0,0v-0.2l0,0.2l0-0.3l0.2,0.1c0,0,0,0,0,0c-0.1,0-0.2,0.1-0.3,0.2
				c-0.1,0.2-0.2,0.4-0.2,0.5c-0.1-0.1-0.1-0.2-0.2-0.2c-0.1-0.1-0.2-0.2-0.3-0.3c-0.1-0.1-0.2-0.2-0.4-0.2c-0.2,0-0.3,0.1-0.4,0.2
				c-0.1,0.1-0.1,0.3-0.1,0.5c0,0.1,0,0.1,0,0.2c0,0.5,0.2,0.8,0.3,1.1c0,0,0,0.1,0,0.2c0,0.1,0,0.2,0,0.3l-0.2,0l0,0
				c0,0-0.2,0.1-0.4,0.3c-0.2,0.1-0.4,0.3-0.4,0.7c0,0.2,0,0.3,0.1,0.5c0.1,0.1,0.1,0.2,0.2,0.2c0,0-0.1,0.1-0.1,0.1
				c-0.2,0.1-0.3,0.3-0.4,0.5c0,0,0,0,0-0.1c0-0.1,0-0.1,0-0.2l0-0.3l-0.3,0.1c-0.3,0.1-0.5,0.3-0.5,0.5c-0.1,0.2-0.1,0.3-0.1,0.4
				c0,0.1-0.2,0.2-0.4,0.3c-0.2,0.1-0.4,0.3-0.4,0.6c0,0,0,0.1,0,0.1c0,0,0,0.1,0,0.1c-0.1,0-0.2-0.1-0.3-0.1c0,0,0,0,0,0
				c-0.3,0-0.5,0.2-0.7,0.4c-0.2,0.2-0.3,0.4-0.5,0.5c-0.1,0.1-0.3,0.2-0.5,0.3c-0.2,0.2-0.4,0.3-0.4,0.7c0,0,0,0.1,0,0.1
				c0,0,0,0,0,0c0,0,0,0,0,0c-0.1-0.1-0.2-0.2-0.4-0.2c-0.2,0-0.4,0.1-0.5,0.3c-0.2-0.1-0.4-0.1-0.5-0.1c-0.2,0-0.3,0-0.4,0.1
				c-0.2,0.1-0.3,0.4-0.3,0.5c0,0-0.1,0-0.1,0c-0.2,0-0.4,0.1-0.5,0.3c0,0,0,0,0,0c0-0.1-0.1-0.1-0.1-0.2l-0.1-0.2l-0.2,0.1
				c-0.4,0.3-0.7,0.7-1,0.8c0,0-0.1,0-0.2,0c-0.2,0-0.4,0-0.7,0c-0.2,0-0.4,0-0.6,0.2c-0.1,0.2-0.1,0.3-0.1,0.4c0,0.1,0,0.3,0,0.5
				l-0.2-0.2l0.2,0.8c0,0,0,0.1,0,0.1c0,0.3-0.2,0.8-0.4,1.1c-0.1,0.2-0.4,0.6-0.7,1.1c-0.3,0.4-0.5,0.9-0.5,1.4
				c0,0.2,0,0.4,0.1,0.5c0.1,0.1,0.1,0.4,0.1,0.6c0,0.4-0.1,0.8-0.1,1.3c0,0.1,0,0.1,0,0.2c0.1,0.8,0.6,1.5,0.6,2c0,0,0,0,0,0
				c0,0.1,0,0.3,0,0.4c0,0.5,0,0.9,0.3,1.5c0.1,0.2,0.2,0.4,0.2,0.5c0,0.2-0.1,0.4-0.2,0.8c0,0.1,0,0.1,0,0.2c0,0.2,0.1,0.4,0.2,0.5
				c0.1,0.1,0.1,0.2,0.1,0.2c0,0,0,0.1,0,0.1c-0.3,0.5-0.6,1-0.9,1.5c-0.3,0.5-0.7,1.1-0.9,1.7c-0.1,0.3-0.1,0.6-0.2,0.9
				c-0.1,0.2-0.1,0.4-0.3,0.4c-0.3,0.1-0.6,0.2-0.8,0.4c-0.2,0.2-0.3,0.5-0.3,0.9c0,0.5-0.6,1.1-0.8,1.9l0.2,0.1l-0.2,0.1
				c0,0.2,0.1,0.4,0.1,0.7c0,0.3,0,0.7,0,1c0,0.5,0.1,1.1,0.4,1.6c0.3,0.3,0.3,0.8,0.5,1.4c0.1,0.2,0.2,0.4,0.3,0.4
				c0.1,0.1,0.1,0.1,0.1,0.1c0,0,0,0.1-0.1,0.2c-0.3,0.4-0.4,1-0.4,1.6c0,0.6,0.1,1.2,0.3,1.5c0.3,0.6,0.5,1,0.6,1.5
				c0.2,0.7,0.5,1,0.9,1.3c0,0.1,0,0.1,0.1,0.2c0.1,0.2,0.3,0.3,0.5,0.4c0.3,0.1,0.6,0.1,0.8,0.1c0.2,0.1,0.5,0.3,0.7,0.5
				c0.2,0.2,0.5,0.5,0.9,0.6c0.1,0,0.2,0,0.3,0c0.6,0,1.2-0.4,1.7-0.7c0.5-0.4,1-0.7,1.4-0.9c0,0,0.1,0,0.2,0c0.2,0,0.4,0.1,0.6,0.1
				c0.1,0,0.2,0,0.3-0.1c0.3-0.1,0.5-0.3,0.8-0.3c0.6-0.1,0.8-0.7,1-1.1c0.2-0.5,0.4-1,0.5-1.5c0.2-0.6,0.6-1.2,0.8-1.9
				c0.4-1.2,0.8-2.4,1.1-3.7c0.5-1.8,1.1-3.4,1.7-5.1c0.5-1.4,0.8-2.9,1.3-4.2c0.1-0.3,0.4-0.8,0.4-1.3c0-0.1,0-0.1,0-0.2
				c0,0,0.1-0.1,0.1-0.1c0.2-0.3,0.3-0.8,0.4-0.9c0.4-1,0.5-2,0.9-2.9c0.5-1.4,1-2.6,1.3-4.1c0-0.2,0-0.4,0-0.6
				c0-0.4-0.1-0.9-0.1-1.3c0-0.6,0.1-1.1,0.6-1.4c0.1,0,0.1-0.1,0.2-0.2c0,0.1,0,0.2,0,0.3c0,0.1,0,0.2,0.1,0.3l0.2,0.5l0.3-0.4
				c0.2-0.4,0.3-0.7,0.4-1l-0.1,0c0,0,0-0.1,0.1-0.1h-0.2v0.3l0.1-0.1c0,0.1-0.1,0.2-0.2,0.3c0.1-0.3,0.2-0.6,0.2-0.8
				c0-0.1,0-0.1,0-0.2c0-0.2,0-0.3,0-0.4c0-0.1,0-0.2,0-0.2c0,0,0-0.1,0-0.1c0-0.3-0.2-0.5-0.3-0.5c-0.1-0.1,1.7-0.1,1.7-0.1v0v0v0
				c-1.8-0.2-1.9-0.7-1.9-1.2c0-0.3,0-0.5,0.1-0.7c0-0.1,0-0.1,0.1-0.1c0,0,0,0,0,0c0.2,0,0.3,0.3,0.4,0.7c0.1,0.4,0.2,0.8,0.7,1
				c0.1,0,0.1,0,0.2,0c0.3,0,0.5-0.2,0.6-0.4c0.4-0.6,0.6-1.5,0.7-1.8c0-0.1,0-0.2,0-0.2c0-0.6-0.4-0.9-0.5-1.3
				C262.9,269.2,262.9,268.4,262.9,267.4L262.9,267.4z"/>
			<path id="path353_1_"  class="st6" d="M267.2,179.1c-0.2,0-0.4-0.1-0.5-0.2l-0.1-0.1
				c0-0.2,0-0.3,0-0.5c0-0.4-0.1-0.8-0.1-1.1c0-0.3-0.1-0.5-0.1-0.7c0-0.5,0.1-1,0.3-1.6c0-0.1,0-0.1,0-0.2c0-0.4-0.3-0.7-0.7-0.8
				c-0.3-0.2-0.7-0.3-1.1-0.3c-0.2,0-0.3,0-0.5,0.1c-0.3,0.2-0.5,0.5-0.7,0.7c-0.2,0.3-0.3,0.5-0.5,0.6c-0.6,0.3-1.4,0.2-2.2,0.5
				c-0.7,0.3-1.2,0.7-1.8,0.6c0,0-0.1,0-0.2,0c-0.3,0-0.6-0.2-1.1-0.2c-0.1,0-0.2,0-0.3,0c-0.5,0.1-0.9,0.3-1.3,0.5
				c-0.3,0.1-0.6,0.2-0.8,0.2c-0.3,0-0.5-0.1-0.8-0.2c-0.1,0-0.2,0-0.3,0c-0.4,0-0.8,0.3-1.2,0.5c-0.4,0.3-0.7,0.6-0.9,0.7
				c-0.4,0.3-0.7,0.3-1,0.3c-0.3,0-0.6-0.1-1.1-0.2c-0.4-0.1-0.7-0.1-0.9-0.1c-0.4,0-0.7,0.1-1.2,0.5c-0.4,0.3-1.1,0.8-1.5,0.9
				c-0.4,0.1-0.7,0.2-1.1,0.2c-0.8,0-1.6-0.3-2.1-1c-0.7-0.8-1.2-2.2-2.3-2.8c-0.1-0.1-0.2-0.3-0.4-0.3c-0.1,0-0.2-0.1-0.3-0.1
				c-0.3,0-0.6,0.1-0.9,0.2c0.1-0.2,0.2-0.3,0.4-0.3c0.5-0.2,1.3-0.6,1.7-1c0.1-0.2,0.2-0.4,0.2-0.6c0-0.4-0.2-0.8-0.5-1.2
				c-0.2-0.3-0.4-0.6-0.5-0.8c0,0,0-0.1,0-0.1c0-0.3-0.2-0.5-0.5-0.7l-0.3-0.3l-0.1,0.4c0,0,0,0,0,0.1c0,0,0,0,0,0
				c-0.1-0.1-0.3-0.3-0.5-0.5c-0.2-0.3-0.3-0.5-0.4-0.6c-0.2-0.2-0.4-0.2-0.5-0.3c-0.1-0.1-0.1-0.1-0.2-0.1c-0.1-0.3-0.1-1-0.6-1.4
				l-0.6-0.4c-0.2-0.2-0.4-0.3-0.6-0.4c-0.5-0.3-0.9-0.9-1.3-1.5c-0.4-0.6-0.7-1.3-1.6-1.4c-0.3,0-0.4-0.1-0.5-0.2
				c-0.1-0.1-0.2-0.3-0.5-0.6c-0.2-0.2-0.4-0.3-0.6-0.3c-0.3,0-0.5,0.2-0.6,0.2c0,0-0.1,0-0.1,0c-0.2,0-0.5-0.6-0.5-0.9
				c0-0.2-0.1-0.4-0.2-0.6c-0.1-0.2-0.3-0.4-0.6-0.4c0,0-0.1,0-0.1,0c-0.1,0-0.2,0.1-0.3,0.2c0,0.1-0.1,0.1-0.1,0.2
				c-0.1-0.3-0.3-0.4-0.4-0.5c-0.1-0.1-0.2-0.2-0.2-0.2c-0.1-0.6-0.4-1-0.6-1.5c-0.2-0.4-0.2-0.8-0.3-1.4c-0.5-2-1.1-3.8-2.1-5.7
				l0,0c0-0.2-0.2-0.4-0.3-0.5c-0.2-0.2-0.4-0.2-0.6-0.3c-0.2-0.1-0.2-0.1-0.2-0.2l0-0.5l-0.4,0.3c-0.1,0-0.5-0.4-0.8-0.8
				c-0.4-0.4-0.7-0.7-1.1-0.8c-0.3,0-0.6-0.5-0.8-1.1c-0.2-0.6-0.3-1.3-0.3-1.7c-0.1-1-0.3-1.9-0.3-2.9c0-0.2,0-0.4,0-0.6
				c0-0.1,0-0.2,0-0.3c0-0.5-0.2-1-0.4-1.5c0-0.1,0-0.1,0-0.1l0.5-0.1c0-0.5-0.3-0.9-0.6-1.3c-0.3-0.3-0.6-0.7-0.7-1
				c-0.1-0.4-0.1-0.7-0.1-1.1c0-0.3-0.2-0.7-0.7-1c-0.6-0.4-1-1.3-1.8-1.7c-0.8-0.4-1.3-0.7-1.5-1.5l-0.1-0.5l-0.1,0.1
				c0,0,0,0,0-0.1c-0.2-0.2-0.4-0.9-0.4-1.6c0-0.2,0-0.4,0-0.6c0.2,0.1,0.4,0.1,0.6,0.1c0,0,0.1,0,0.1,0l0.4,0l-0.2-0.4
				c-0.4-0.6-1.1-0.8-1.3-1.2c-0.4-0.6-0.9-1-1.1-1.6c-0.8-1.6-1.6-3.2-2.5-4.8c-0.3-0.5-0.5-1-0.8-1.5c-0.1-0.2-0.2-0.3-0.3-0.4
				c-0.1-0.1-0.1-0.1-0.1-0.2c0,0,0-0.1,0-0.1l0,0l0,0l0,0c0,0,0-0.1,0.1-0.1c0-0.1,0.1-0.2,0.1-0.4c0-0.1,0-0.2-0.1-0.3
				c-0.2-0.3-0.3-0.5-0.4-0.7c-0.2-0.6-0.5-1.1-1-1.6c-0.1-0.1-0.1-0.1-0.1-0.3c0-0.1,0-0.1,0-0.2c0-0.1,0-0.2,0-0.3
				c0.1-0.1,0.1-0.2,0.1-0.2c0-0.2-0.1-0.3-0.2-0.5c-0.1-0.1-0.2-0.3-0.2-0.3c-0.3-0.3-0.6-0.6-0.8-0.8c-0.6-0.6-1.1-1.4-1.6-2.1
				c-0.5-0.7-0.4-1.7-1.2-2.6c-0.1-0.1-0.1-0.2-0.1-0.3c0-0.2,0.1-0.4,0.2-0.6c0.2,0.8,0.6,1.5,1.1,2.2c0.4,0.6,1,1.1,1,1.6
				c0,0.1,0,0.1,0,0.2c0,0.1,0,0.1,0,0.2c0,0.5,0.3,0.8,0.6,1.1c0.3,0.2,0.6,0.5,0.7,0.6c0.3,0.4,0.6,0.9,1.1,1.2
				c0.4,0.3,0.8,0.4,1,0.6l0.4-0.3c0,0,0,0,0-0.1c0-0.1,0.1-0.3,0.2-0.5c0.1-0.2,0.3-0.5,0.3-0.8c0,0,0,0.5,0,0.5c0,0,0,0,0,0
				c0-0.1,0-0.2,0-0.3c0-0.4,0-0.7,0.2-1.1c0.4-1.1,0.3-2.5,0.9-3.2l0.1-0.1l-2.7-7.1l-0.3,0.2c-0.4,0.3-0.8,0.5-1.3,0.7
				c-0.4,0.1-0.9,0-1.4,0.2c0,0,0-0.1-0.1-0.1c-0.1-0.1-0.2-0.1-0.3-0.1c-0.2,0-0.4,0.1-0.5,0.1c-0.2,0.1-0.3,0.1-0.3,0.1
				c0,0-0.1,0-0.1,0c-0.3,0-0.5-0.1-0.7-0.3c-0.2-0.2-0.5-0.4-0.9-0.5l0,0c0,0,0,0,0,0c-0.1,0-0.2-0.2-0.3-0.3
				c-0.1-0.2-0.3-0.4-0.5-0.5c-0.1,0-0.2,0-0.2,0c-0.2,0-0.3,0-0.4,0.1l0,0l0,0c-0.2,0.1-0.3,0.2-0.4,0.2c0,0-0.1,0-0.1,0
				c-0.2,0-0.4-0.1-0.6-0.2c-0.2-0.1-0.5-0.3-0.9-0.3c-0.1,0-0.2,0-0.3,0.1l0,0.1l-0.1,0c0,0,0,0,0,0c-0.5,0-0.9,0.4-1.1,0.3
				c-0.1,0-0.1,0-0.2-0.1l-0.3-0.2l-0.1,0.4c0,0.2-0.2,0.4-0.4,0.5c0,0-0.1-0.1-0.2-0.1l-0.2-0.1l-0.2,0.2c-0.3,0.3-0.5,0.6-0.8,0.8
				c-0.5,0.4-1.1,0.9-1.7,0.9c-0.1,0-0.1,0-0.2,0c-0.7-0.1-1.3-0.7-2.3-0.8c-0.3,0-0.6,0-0.8-0.1c0,0-0.1,0-0.2-0.1
				c-0.1-0.1-0.2-0.2-0.4-0.3c0,0,0,0-0.1,0c-0.2,0-0.3,0-0.4,0c-0.1,0-0.2,0-0.4-0.1c-0.1,0-0.2-0.1-0.3-0.2
				c-0.1-0.1-0.3-0.3-0.5-0.4c-0.9-0.2-1.8-0.4-2.7-0.5c-0.5-0.1-1.1-0.2-1.6-0.2c-0.2,0-0.5,0-0.8,0.1c-0.2,0.1-0.5,0.2-0.7,0.2
				c-0.1,0-0.2,0-0.2-0.1c0,0-0.1-0.1-0.1-0.2l0-0.5l-0.1,0.1c-0.1-0.2-0.2-0.3-0.3-0.5c-0.2-0.3-0.4-0.5-0.7-0.5
				c-0.2,0-0.4,0-0.6,0c-0.3,0-0.6,0-0.9,0c-0.2,0-0.4,0-0.6-0.1c-0.6-0.2-1.2-0.5-2-0.6c-0.2,0-0.5-0.1-0.7-0.1
				c-0.2-0.1-0.3-0.2-0.3-0.3c0-0.1,0-0.1,0-0.2c0-0.1,0-0.2,0-0.3c0-0.2,0-0.4-0.2-0.5c-0.1-0.2-0.3-0.2-0.6-0.3
				c-0.6-0.2-1.2-0.6-1.9-0.8c-0.4-0.1-0.8-0.1-1.1-0.1c-0.2,0-0.5,0-0.7,0c-0.7,0.1-1.1,0.5-1.6,0.5c-0.7,0-1.5,0.4-2.2,1
				c-0.7,0.5-1.3,1.2-1.5,1.9c-0.1,0.2-0.1,0.5-0.1,0.7c0,0.5,0.1,1,0.3,1.4c0.2,0.5,0.5,0.9,0.5,1.3c0,0.1,0,0.1,0,0.2
				c-0.3,1.2-1.6,2.3-2.8,2.4c0,0-0.1,0-0.1,0c-0.9,0-1.6-0.9-2.4-1.6c-1.1-0.9-2.9-1.4-4.1-1.7c-1.3-0.2-2.5,0-3.4-0.9
				c-0.5-0.5-0.8-1-0.9-1.7c-0.1-0.6-0.2-1.3-0.8-1.7c-0.6-0.4-1.3-0.2-1.6-0.3c-0.5-0.2-1-0.6-1.6-0.9c-0.7-0.3-1.4-0.3-2-0.5
				c-0.2-0.1-0.4-0.1-0.5-0.1c-0.6,0-1,0.3-1.5,0.3c-0.1,0-0.2,0-0.4,0c-0.5,0-1-0.1-1.4-0.4c-0.6-0.4-1.3-0.6-1.8-0.9L142,98
				c0,0-0.1-0.1-0.1-0.1l-0.1-0.1l0,0c-0.1,0-0.2,0-0.3,0c0,0-0.1,0-0.1,0c0-0.2-0.1-0.3-0.2-0.4c-0.1-0.1-0.1-0.2-0.2-0.2
				c0,0,0,0,0,0c0,0,0-0.1,0-0.2c0-0.2-0.1-0.4-0.4-0.5c0,0,0,0-0.1,0c0.1-0.1,0.2-0.3,0.2-0.5c0-0.2-0.1-0.3-0.2-0.4
				c-0.1-0.1-0.3-0.1-0.5-0.1c0,0,0,0,0,0c-0.2,0-0.3,0-0.5,0.1c-0.2,0.1-0.3,0.3-0.3,0.5c0,0.1,0,0.1,0,0.2c-0.3,0-0.4,0.1-0.5,0.1
				c0,0-0.1,0-0.1,0c-0.3-0.1-0.5-0.4-0.6-0.6c-0.2-0.3-0.2-0.5-0.2-0.6c0-0.2,0.2-0.4,0.4-0.7c0.3-0.2,0.7-0.4,1-0.7
				c0.8-0.6,1.5-1.7,1.6-2.8c0-0.2,0-0.3,0-0.5c-0.1-0.4-0.1-0.7-0.3-0.9c-0.2-0.2-0.4-0.4-0.8-0.6c-0.4-0.2-0.7-0.8-0.7-1.2
				c0,0,0-0.4,0-0.4s-0.3-0.6,0.1-0.9c0.4-0.3,0.8-0.7,1-1.1c0.1-0.2,0.2-0.4,0.2-0.6c0-0.3-0.2-0.6-0.5-0.7c-0.1,0-0.1,0-0.2,0
				c-0.2,0-0.4,0.1-0.5,0.2c-0.1,0.1-0.2,0.2-0.3,0.3c-0.3,0.2-0.6,0.5-0.9,0.6c0,0,0,0,0,0c0,0,0,0,0,0c0-0.1,0-0.1,0-0.2
				c0-0.2-0.1-0.4-0.3-0.6c0,0,0-0.1,0-0.2c0-0.1,0-0.1,0-0.2c-0.1-0.3-0.3-0.5-0.5-0.6c-0.2-0.1-0.4-0.1-0.6-0.1
				c-0.1-0.1-0.2-0.2-0.3-0.2c-0.1,0-0.2-0.1-0.3-0.1c-0.4,0-0.7,0.2-0.9,0.2c-0.7,0.2-1.2,0.4-1.7,1c-0.1,0.1-0.1,0.1-0.2,0.1
				c0,0-0.1,0-0.2,0l0,0l0,0c0,0-0.1,0-0.1,0c0,0-0.1,0-0.1,0.1l0,0c-0.4,0.2-1,0-1.6,0.2c-0.1,0-0.4,0.1-0.5,0.1c0,0,0,0,0,0
				l0.2-0.4l-0.5,0c0,0,0,0,0,0c-0.3,0-0.5-0.2-1-0.3c-0.1,0-0.2,0-0.3,0c-0.2,0-0.4,0.2-0.4,0.3c-0.1,0.1-0.1,0.1-0.1,0.2
				c-0.2,0.1-0.3,0.2-0.6,0.2c-0.3,0-0.6-0.1-0.9-0.3c-0.2-0.1-0.6-0.3-1-0.3c-0.1,0-0.3,0-0.4,0.1c-0.1,0.1-0.2,0.3-0.2,0.4
				c0,0,0,0.1,0,0.1c-0.1,0-0.3,0.1-0.6,0.2c-0.3,0-0.6,0.1-0.7,0.1c-0.3,0-0.6,0.2-0.8,0.4c-0.2,0.1-0.3,0.2-0.4,0.2
				c-0.1,0-0.2,0-0.4-0.2c-0.6-0.4-0.9-0.7-1.6-0.7c0,0-0.1,0-0.1,0c-0.1,0-0.2,0-0.3-0.2h-0.8c-0.6,0.1-1.2,0.2-1.8,0.4l0,0
				c-0.1,0-0.4,0-0.7,0c-0.1,0-0.3,0-0.4,0c-0.1,0-0.1,0-0.1,0c0,0,0,0-0.1,0c0,0-0.1,0-0.2,0.1c-0.1-0.1-0.3-0.1-0.4-0.1
				c-0.4,0-0.6,0.2-0.8,0.3c-0.2,0.2-0.6,0.7-0.6,0.7s-0.3,0-0.3,0c-0.1,0-0.2,0-0.3,0c-0.9,0-1.8,0.2-2.6,0.3
				c-1.4,0.2-3.7,0.7-4.5,2.3c-0.2,0.3-0.2,0.3-0.3,0.3c-0.2,0-0.4-0.2-0.8-0.2c-0.1,0-0.3,0.1-0.5,0.2c-0.1,0.2-0.4,0.4-0.5,0.3
				c0,0,0,0,0,0c-0.1-0.1-0.2-0.1-0.3-0.1c-0.4,0-0.7,0.3-0.8,0.3c-0.4,0.2-0.6,0.6-0.8,0.9c-0.1,0.2-0.2,0.2-0.3,0.3
				c-0.1,0.1-0.3,0.1-0.5,0.2c-0.8,0.4-1.2,0.6-2.1,0.7c-0.1-0.1-0.3-0.2-0.5-0.2c-0.1,0-0.2,0-0.3,0.1c-0.1,0-0.2,0.1-0.3,0.1
				c-0.2,0-0.3-0.1-0.4-0.2c0,0-0.1-0.1-0.1-0.2L98.3,91c-0.1-0.3-0.1-0.3-0.1-0.6c0,0,0,0,0,0l-0.5-0.1c-0.3,0.5-0.6,0.6-1.1,0.6
				c-0.4,0-0.8-0.1-1.2-0.1c-0.1,0-0.2,0-0.3,0c-0.5,0.1-1,0.1-1.4,0.1c-0.5,0-1-0.1-1.5-0.5c-0.5-0.3-0.7-0.7-0.9-1.2
				c0-0.1-0.1-0.3-0.2-0.4c-0.1-0.2-0.2-0.4-0.5-0.4c-0.1,0-0.2,0-0.3,0.1c-0.3,0.1-0.6,0.3-0.8,0.3c0,0-0.1,0-0.1,0c0,0,0,0,0,0
				c-0.2,0-0.3,0.2-0.4,0.3c-0.2,0.4-0.4,1-0.4,1.1c-0.8,2.1-1.7,4.9-3.6,6c-1,0.6-2.1,1-3.2,1.5C80.6,98,80,99,79.2,99.7
				c-0.4,0.3-0.8,0.7-1,1.3c-0.2,0.8-0.1,1.3-0.5,1.8c-0.8,1-1.4,1.8-1.5,3.2c0,0.5,0,0.9-0.2,1.3c-0.1,0.1-0.1,0.3-0.1,0.4
				c0,0.2,0.1,0.4,0.2,0.4c0.1,0.1,0.2,0.1,0.3,0.2c0.2,0.1,0.2,0.3,0.2,0.5c0,0.6-0.6,1.7-0.9,2c-0.7,0.9-1.3,1.8-2.1,2.5
				c-0.9,0.7-1.7,1.4-2.6,2.2c-0.8,0.8-1.9,1.1-3,1.4c-0.6,0.1-1.2,0.2-1.9,0.4c-0.1,0.1-0.2,0.1-0.3,0.2c-0.2,0.2-0.4,0.5-0.5,0.7
				c-0.1,0-0.1,0-0.1,0.1c0,0,0,0-0.1,0.1L65,119l0.2,0c0,0.1-0.1,0.2-0.2,0.4c-0.2,0.4-0.3,0.8-0.5,1.1c-0.5,1.3-1.1,1.9-2.3,2.6
				c-1.2,0.7-1.6,2.1-2.1,3.3c-0.6,1.5-0.4,2.7-1.4,3.8c-0.8,0.9-2.1,1.7-2.7,3l0.4,0.2c-0.1,0.2-0.2,0.4-0.3,0.6
				c-0.3,0.4-0.6,0.8-0.7,1c-0.1,0.2-0.1,0.5-0.2,0.6c0,0.1,0,0.1,0,0.2c0,0,0,0,0,0c-0.3,0.2-0.4,0.5-0.5,0.8
				c-0.1,0.3-0.1,0.5-0.2,0.7c-0.1,0.3-0.3,0.5-0.5,0.7c-0.2,0.2-0.6,0.4-0.8,0.8c-0.4,0.6-0.5,1.2-0.6,1.8
				c-0.1,0.6-0.6,1.7-0.6,2.6c0,0.3,0.1,0.6,0.2,0.9l0.2-0.1l0.3,0.1c0.1-0.3,0.1-0.6,0.2-0.8c0.1,0.2,0.1,0.4,0.2,0.6
				c0.1,0.4,0.3,0.8,0.7,1.2l0.3,0.3l0.1-0.3c0.2,0.5,0.5,1.1,0.5,1.5c0,0.2,0,0.3-0.2,0.5c0,0,0,0.1,0,0.1l-0.2,0.2
				c-0.2,0.2-0.4,0.5-0.4,0.9c0,0.1,0,0.3,0.1,0.4l0.1,0c-0.1,0.1-0.1,0.2-0.2,0.4l-0.3-0.1l0,0.4c0.1,0.6,0.6,0.9,0.8,1.2
				c0.2,0.3,0.2,0.7,0.3,1.2c0.1,1,0.3,1.8,0.3,2.7c0,0.3,0,0.6,0,0.9c-0.2,2-1.6,3.8-1.6,6.1c0,0.1-0.1,0.3-0.1,0.4
				c-0.2,0.6-0.3,1.1-0.4,1.2c-0.4,0.8-0.9,1.7-1.5,2.3c-0.1,0.1-0.4,0.2-0.6,0.3c-0.1,0.1-0.3,0.2-0.4,0.3
				c-0.1,0.1-0.2,0.3-0.2,0.5c0,0,0,0,0,0.1l0.1,0.5l0.4-0.4c0.1-0.1,0.2-0.1,0.3-0.1c0.4,0.2,0.8,0.6,1,1.2
				c0.3,0.6,0.4,1.3,0.4,1.7l0,0c0,0.1,0,0.1,0,0.1l0.1,0c0,0,0,0,0,0c0,0,0,0.1,0,0.1l0.1,0.2l0.2,0c0,0,0,0,0,0c0,0,0,0,0,0
				l-0.1,0.3l0.3,0c0.1,0,0.1,0,0.2,0c-0.1,0.1-0.2,0.2-0.2,0.4c0,0,0-2.4,0-2.4c0,0,0,0,0,0c-0.2,0-0.2,0.1-0.3,0.1
				c-0.1,0.1-0.2,0.1-0.3,0.3l0.2,0.2l-0.3-0.1c0,0.1,0,0.2,0,0.3c0,0.3,0.1,0.6,0.2,0.9c0,0,0,0,0,0.1c-0.1,0.2-0.2,0.6-0.2,0.9
				c0,0.1,0,0.2,0.1,0.4c0,0,0,0,0,0.1c0,0.1-0.1,0.2-0.1,0.3c0,0.1,0,0.2,0,0.3l0,0.1l0,0c-0.1,0.1-0.1,0.2-0.1,0.3
				c0,0.2,0.1,0.3,0.1,0.4c0.1,0.1,0.1,0.2,0.1,0.2l0.1,0.3l0.2-0.1c0.1,0,0.2,0.1,0.3,0.2c0.1,0.1,0.4,0.3,0.7,0.3c0,0,0,0,0,0l0,0
				c0,0.1,0,0.2,0,0.3c0,0,0,0.1,0,0.1l-0.1,0l0.2,0.5c0,0.1,0.1,0.2,0.1,0.3l0.3-0.1l0.1,0.2c0,0,0,0,0.1,0
				c0.1,0.1,0.3,0.2,0.4,0.2c0,0,0.3,0,0.3,0s0.1-0.2,0.1-0.2l0,0.3l0.3-0.1c0.3-0.1,0.7,0,1.1-0.3c0,0,0.1-0.1,0.1-0.1
				c0,0.1,0,0.1,0,0.2c0,0.3,0.1,0.5,0.2,0.7l0,0.1c-0.1,0.1-0.1,0.3-0.1,0.4c0,0.1,0,0.1,0.1,0.2c0,0,0,0,0,0c0,0,0,0,0,0l-0.1,0.2
				l0,0l-0.1,0.1l0.3,0.3c0.1,0.1,0.2,0.2,0.3,0.2l0.2-0.2l0,0c0.1,0,0.1,0.1,0.2,0.1c0.1,0.1,0.2,0.3,0.3,0.7l0.1,0.2
				c0,0.2,0.2,0.5,0.5,0.5l0.4,0.1l0.1,0.6l0.3-0.5c0,0,0-0.1,0.1-0.1l0,0c-0.1,0.2-0.2,0.4-0.3,0.6l-0.2,0.4l0.5,0c0,0,0,0,0.1,0
				c0,0.2,0.1,0.4,0.3,0.5c0.2,0.2,0.5,0.3,0.7,0.4c0.2,0.1,0.3,0.2,0.3,0.3l0.5,0.1v0c0,0.2,0.1,0.4,0.4,0.6
				c0.1,0.1,0.2,0.2,0.4,0.2c0,0,0,0,0,0l-0.1,0.3l0.3,0.1c0.1,0,0.2-1,0.2-1s-0.1,0-0.1,0c0,0.1,0,0.1,0,0.2c0,0.1,0,0.3,0.1,0.4
				c0,0.1,0,0.1,0.1,0.2c0,0.1,0.1,0.1,0.2,0.1c0.1,0.1,0.1,0.2,0.2,0.2c0.1,0.1,0.1,0.1,0.1,0.1c0,0,0,0,0,0l-0.1,0.4l0.4,0
				c0,0,0,0,0,0c0,0.1,0,0.2,0,0.4l0,0.3c0,0,0,0.1,0,0.2c0,0,0,0.1,0,0.1l0.1,0.5l0.2-0.2c0.1,0.1,0.2,0.1,0.3,0.2
				c0,0-0.1,0-0.1,0.1c-0.2,0.1-0.3,0.4-0.3,0.6c0,0.2,0.1,0.3,0.1,0.5l-0.1,0.1c-0.1,0.1-0.1,0.3-0.1,0.5c0,0.3,0.2,0.5,0.4,0.7
				c0.2,0.1,0.4,0.2,0.6,0.2c0,0.2,0.1,0.4,0.1,0.7c0,0.2,0.1,0.4,0.2,0.6c0,0.1,0.1,0.2,0.1,0.2c0,0.1,0.1,0.2,0.3,0.2
				c0,0-0.1,0-0.1,0s0.1,0.5,0.2,0.6c-0.1,0-0.3,0.9-0.3,0.9s0.3,0,0.3,0l0,0.2c0,0,0,0,0,0l0,0l-0.2-0.1c0,0.1-0.1,0.1-0.1,0.2
				l-0.1,0.3l0.3,0.1c0.4,0.1,0.8,0.3,1.2,0.4l0.1,0l-0.1,0.1c0.4,0.3,2.4,1.4,3,1.7l0,0c0.2,0.2,0.3,0.4,0.4,0.6
				c0.1,0.2,0.3,0.4,0.7,0.6c0.1,0,0.3,0.2,0.5,0.4c0.1,0.1,0.3,0.2,0.5,0.3c0,0.3,0.2,0.4,0.4,0.5c0.3,0.2,0.7,0.4,1,0.6
				c0.3,0.2,0.6,0.3,0.7,0.4c0.9,0.8,1.6,1.9,2.5,2.8c0.9,0.8,2,1.2,2.8,1.8c0.6,0.4,1.2,0.5,1.6,0.7c0.3,0.2,0.7,0.4,1.1,0.4
				c0.1,0,0.1,0,0.2,0c0.1,0,0.1,0,0.2,0c0.2,0,0.4-0.1,0.6-0.3c0.3-0.3,1.3-0.8,1.6-0.8c1-0.1,1.8-0.8,2.5-1.1
				c0.9-0.4,1.9-0.3,2.9-0.4l0-0.1c0.1,0.1,0.2,0.1,0.3,0.1c0.2,0,0.3,0,0.4,0c0.8-0.1,1.6-0.3,2.3-0.3l0.2,0
				c0.1,0.1,0.2,0.1,0.4,0.1c0.1,0,0.1,0,0.2-0.1c0.2,0.2,0.5,0.2,0.8,0.2c0,0,0.1,0,0.1,0c0.3,0,0.5-0.2,0.7-0.4
				c0,0,0.1-0.1,0.1-0.1c0,0,0,0.1,0.1,0.1c0.1,0.1,0.2,0.3,0.4,0.4l-0.1,0.3l0.5-0.1c0.2,0.2,0.3,0.3,0.5,0.3
				c0.2,0.1,0.4,0.1,0.6,0.1c0.5,0.1,0.8,0.2,1,0.5c0.2,0.2,0.4,0.3,0.7,0.3h0.1c0.2,0,0.3,0,0.5-0.1c0.4-0.2,0.7-0.5,0.9-0.8
				c0.3-0.2,0.7-0.3,1.2-0.5c0.6-0.3,1.3-0.2,2.1-0.7c1.1-0.7,1.9-1.4,3.2-1.6c0.2,0,0.4-0.1,0.6-0.2c0,0,0.1-0.1,0.2-0.1
				c0.1,0.1,0.2,0.2,0.4,0.2c0,0,0.1,0,0.1,0c0.6,0,0.9-0.5,1-0.9c0,0,0.1-0.1,0.2-0.2c0.1-0.1,0.1-0.1,0.2-0.2
				c0.2-0.1,0.5-0.2,0.7-0.3l0.6-0.1c0.7-0.1,1.3-0.2,2-0.3c0.3-0.1,0.9-0.1,1.3-0.2l0,0.1l0.3-0.1l0.3,0l0,0c0.2,0,0.4,0,0.7,0
				c0.2,0,0.7,0,0.9,0c0.2,0,0.5,0,0.7,0l0.3,0l0,0c0.1,0,0.1,0,0.2,0c0.3,0,0.6-0.1,0.8-0.1c0.1,0,0.2,0,0.2,0
				c0.4,0,0.9,0.1,1.2,0.2c0.9,0.2,1.8,1.3,2.1,2.2l0.2,0.4l0,0c0.1,0.2,0.2,0.3,0.3,0.4c-0.1,0.1-0.1,0.1-0.1,0.3
				c0,0.2,0.1,0.3,0.2,0.4c0.1,0.1,0.2,0.1,0.4,0.1c0,0,0,0,0,0c-0.1,0.1-0.1,0.2-0.1,0.3c0,0.1,0,0.2,0,0.3l0.1,0.3l0.3-0.1
				c0,0,0,0,0,0c0,0,0,0.1,0,0.2c0,0.1,0,0.2,0,0.3c0,0.5,0.2,0.9,0.4,1.2c0.2,0.4,0.5,0.9,1,1.2c0.1,0.1,0.2,0.1,0.3,0.2
				c0.1,0.1,0.1,0.1,0.3,0.2c0.1,0.1,0.2,0.2,0.3,0.2c0.2,0,0.3-0.1,0.4-0.3c0.1,0,0.2,0.1,0.2,0.1c0.1,0,0.2,0,0.4,0c0,0,0,0,0.1,0
				c0.1,0,0.1,0,0.2,0l0,0.4l0.4-0.5c0,0,0,0,0,0c0,0,0,0,0,0.1c0,0.1,0.1,0.1,0.2,0.1c0.1,0,0.2-0.1,0.2-0.1c0-0.1,0.1-0.1,0.1-0.2
				c0,0,0,0,0,0c0,0,0.1,0.1,0.1,0.1l0.2,0.1l0.1-0.3c0-0.1,0-0.2,0.1-0.2c0,0,0.1,0,0.1,0l-0.1,0.1l0.1,0c0,0,0,0,0,0l0.3,0l0,0
				l0,0.3c0.1,0,0.3,0,0.4-0.1c0,0,0.1-0.1,0.1-0.1c0.1,0,0.2,0,0.3,0l0-0.1c0,0,0.1,0,0.1,0l0.1,0.1c0.1-0.1,0.2-0.1,0.3-0.2
				l0.2-0.1c0.1,0,0.2,0,0.3,0c0.4,0,0.7-0.1,0.9-0.1c0.3-0.1,0.6-0.1,0.7-0.2c0.2-0.1,0.3-0.3,0.3-0.5c0.1,0.1,0.1,0.1,0.2,0.2
				c0,0,0,0.1,0,0.1c0,0.1,0,0.3,0.2,0.4c0.1,0.1,0.3,0.2,0.5,0.2c0.1,0,0.1,0,0.2,0l0.2,0l0-0.3c0,0,0,0,0,0c0.1,0,0.1,0,0.2-0.1
				c0.1,0.4,0.2,1,0.3,1.5c0.1,0.2,0.2,0.4,0.4,0.5c0.2,0.1,0.4,0.3,0.6,0.3c0,0,0,0,0,0c0.1,0.2,0.3,0.3,0.5,0.3l0.2,0l0.1-0.2
				c0,0,0-0.1,0-0.1l0.3,0c-0.1,0.1-0.1,0.2-0.2,0.2c-0.1,0.1-0.2,0.3-0.2,0.5c0,0.2,0.1,0.4,0.3,0.5c0.1,0,0.1,0.1,0.2,0.1
				c0,0,0,0,0,0c0,0.3,0.1,0.4,0.2,0.6c0.1,0.2,0.2,0.3,0.3,0.4c0.1,0.2,0.2,0.5,0.2,0.8c0,0.4-0.1,0.9-0.2,1.4
				c-0.1,0.3-0.1,0.6-0.1,0.9c0,0.2,0,0.3,0.1,0.5c-0.2,0.8,0,1.5-0.2,1.9c0,0.1-0.1,0.2-0.2,0.4c-0.1,0.2-0.2,0.3-0.2,0.6
				c-0.1,0.1-0.3,0.4-0.5,0.6c-0.2,0.3-0.4,0.6-0.4,1c0,0.1,0,0.2,0.1,0.3c0.2,0.4,0.5,0.4,0.8,0.4c0,0,0,0,0,0c0,0.1,0,0.2,0,0.4
				c0,0.3,0.1,0.6,0.1,0.8c-0.1,0-0.2-0.1-0.3-0.1c-0.1,0-0.1,0-0.2,0c-0.1,0-0.2,0.1-0.3,0.1c-0.1,0.1-0.2,0.2-0.2,0.3
				c0,0.2,0.1,0.3,0.2,0.5c0.1,0.1,0.2,0.2,0.2,0.3l-0.1,0.1c-0.3,0.3-0.3,0.7-0.3,1.1c0,0.4,0.1,0.9,0.1,1.2c0,0.1,0,0.1,0,0.1
				c0,0.3-0.2,0.6-0.5,1c0,0.1-0.1,0.1-0.1,0.2c0,0,0-0.1-0.1-0.1l-0.4-0.4l0,0.5c0,0,0,0.1,0,0.1c0,0-0.1,0-0.1,0c0,0,0-0.1,0-0.1
				l0-1l-0.4,0.9c-0.1,0.1-0.1,0.3-0.1,0.4c0,0.3,0.1,0.6,0.3,0.8l0.2-0.2l0,0l-0.2,0.2l0.1-0.1l-0.1,0.1c0,0,0,0,0,0
				c0,0,0.1,0.2,0.2,0.3c0.1,0.3,0.3,0.7,0.5,1c0,0,0,0.1,0.1,0.1l-0.2,0.1c0.2,0.5,0.5,0.8,0.6,1.2c0,0,0,0.1,0,0.3l0,0.1l0,0
				c0,0,0,0,0,0c0,0,0,0.1,0,0.1l-0.2,0l0.4,0.5c0.1,0.2,0.4,0.7,0.6,1.1c0.2,0.4,0.4,0.7,0.7,0.9l0,0l0.2,0.2
				c0.9,0.9,1.9,1.8,2.6,2.9c0.5,0.7,1,1.9,1.8,2.6c0.8,0.7,1.8,1.7,2,2.6c0,0.1,0.1,0.5,0.2,0.8c0.1,0.2,0.1,0.3,0.2,0.4
				c0.1,0.1,0.2,0.2,0.4,0.3c0,0,0,0,0,0.1c0,0.5,0.3,0.9,0.4,1.1c0,0.1,0,0.2,0,0.2c0,0.2-0.1,0.3-0.1,0.8c0,0,0-2.9,0-2.9
				c0,0.2,0.1,0.4,0.2,0.5c0,0,0,0,0.1,0.1l0,0c0.2,0.4,0.4,0.7,0.7,0.8c-0.2,0.1-0.3,0.4-0.3,0.6c0,0.7,0.5,1.4,0.7,1.7
				c0.4,0.6,0.9,0.9,1,1.4c0.1,0.3,0.1,0.8,0.3,1.2c0.4,0.8,0.6,1.7,1.1,2.5c0.3,0.5,0.5,1.1,0.5,1.7c0,0.1,0,0.3,0,0.4
				c0,0.1,0,0-0.1,0.1c-0.1,0-0.3,0.1-0.4,0.2c-0.1,0.1-0.1,0.1-0.2,0.2l0,0c-0.4,0.2-0.6,0.5-0.6,0.8c0,0.2,0.1,0.4,0.1,0.5l0,0.4
				l0.1-0.2c0.1,0.1,0.1,0.3,0.2,0.4c0.1,0.3,0.1,0.6,0.2,1c0.1,0.4,0.4,0.7,0.4,0.9c0.2,0.6,0.2,1.1,0.7,1.8c0.4,0.6,0.7,1,0.9,1.7
				c0.1,0.4,0.2,1,0.2,1.5c0,1.2-0.3,2.4-0.8,3.3c-0.2,0.3-0.3,0.6-0.4,0.8c-0.1,0.2-0.2,0.2-0.5,0.3c-0.6,0-1,0.4-1.1,0.8
				c-0.1,0.4-0.2,0.7-0.3,1c-0.2,0.3-0.8,1-1.1,1.3c-0.3,0.3-0.3,0.6-0.3,0.9c0,0.3-0.1,0.6-0.2,0.8c-0.5,0.8-0.3,1.7-0.5,2.3
				c-0.1,0.4-0.6,1.4-0.6,2.1c0,0.1,0,0.2,0.1,0.3c0,0,0,0.1-0.1,0.2c-0.1,0.1-0.2,0.3-0.2,0.5c0,0.3-0.1,0.6-0.2,0.8
				c-0.1,0.2-0.5,0.4-0.7,0.9c0,0.1-0.1,0.2-0.1,0.2c0,0.3,0.1,0.5,0.1,0.6c0,0.2,0,0.5,0,0.7c0,1.1-0.2,2.2-0.2,3.4
				c0,0.1,0,0.2,0,0.2c0,0.3,0,0.6,0,0.9c0,1.6,0.4,3.1,1.7,4.3c1.3,1.1,1.7,3.2,2.6,4.8c0.9,1.6,1.2,3.5,2.6,5.1
				c0.2,0.2,0.3,0.7,0.5,1.1c0.3,0.4,0.6,0.8,0.9,1.1c0.5,0.6,0.9,1.4,0.9,2.1l0,0.3c-0.1,0.4-0.2,1.1-0.3,1.2c0,0.1,0,0.2,0,0.3
				c0,0.4,0.1,1,0.1,1.5c0,0.1,0,0.3,0,0.4c0,0.3,0,0.7,0,1c0,0.4,0,0.8,0.2,1.2c0.3,0.8,0.8,1.6,0.9,2.4c0,0.1,0,0.1,0,0.2
				c0,0.2-0.1,0.5-0.1,0.9c0,0.1,0,0.3,0.1,0.4c0.1,0.3,0.1,0.6,0.1,1c0.1,0.5,0.2,1,0.2,1.4c0,0,0,1.2,0,1.2c0,0.1,0,0.2,0,0.3
				c0,0.2,0,0.4,0.2,0.5c0.2,0.3,0.2,0.4,0.2,0.6c0,0.1,0,0.2,0,0.3c0,0.1,0,0.3,0,0.5c0.1,0.5,0.4,0.6,0.4,0.9
				c0.1,0.4,0.1,0.8,0.3,1.2c0.3,0.7,0.6,1.3,1,2c0.5,0.7,1.1,1.3,1.6,1.9c0.1,0.2,0.3,0.3,0.5,0.3c0.2,0.9,0.8,1.5,1,2.2
				c0.3,0.8,0.4,1.6,0.7,2.4c0.5,1.8,1.3,3.3,2.2,4.9c0.6,1,0.9,1.9,0.9,3c0,0,0,0.1,0,0.1c0,0.3,0,0.6-0.1,0.8
				c-0.1,0.2-0.2,0.3-0.3,0.3c-0.1,0-0.2,0-0.3-0.1l-0.3-0.2l-0.1,0.3c0,0.1-0.2,0.5-0.2,0.9c0,0.1,0,0.2,0.1,0.3
				c0.1,0.1,0.2,0.2,0.3,0.2l0,0h0c0.1,0,0.1,0,0.1,0.1c0,0,0,0,0,0c0,0,0,0.1,0,0.1c0,0.1,0,0.1,0,0.2c0.1,0.3,0.6,0.9,0.7,1.1
				c0.2,0.3,0.3,0.6,0.3,0.9c0,0,0,0.1,0,0.1c0,0.2-0.3,0.7-0.3,1.2c0,0.3,0.2,0.7,0.5,0.8l0.3,0.1l0-0.4c0-0.2,0-0.3,0-0.5
				c0-0.1,0-0.1,0-0.2c0,0,0,0,0.1,0c0.1,0,0.1,0,0.1,0c0.2,0,0.3,0.1,0.3,0.3c0,0.1,0,0.2-0.1,0.3l-0.1,0.3l0.3,0.1
				c0.2,0,0.5,0,0.8,0.1c0.2,0,0.3,0.1,0.4,0.1c0,0,0.1,0,0.1,0.1c0,0,0,0,0,0c0,0,0,0-0.1,0.1l-0.2,0.3l0.3,0.1
				c0.2,0.1,0.4,0.3,0.6,0.5c0.1,0.1,0.3,0.1,0.4,0.1c0.1,0,0.2,0,0.2,0c0,0,0.1,0,0.1,0c0.2,0.1,0.3,0.1,0.4,0.1h0.3
				c0,0,0.2,0.2,0.3,0.2c0.1-0.1,0.1-0.1,0.3-0.2c0.4-0.3,0.8-0.7,1.2-0.9c0.2-0.1,0.6,0,1.1-0.2c0,0,0.2,0,0.3,0
				c0.4,0,1.1,0.1,1.7,0.1c0.4,0,0.9-0.1,1.1-0.5c0.3-0.6,1.3-1,2.1-1c0.1,0,0.2,0,0.3,0l0.1,0c0.1,0.1,0.3,0.1,0.4,0.1
				c0.2,0,0.5,0,0.5,0c0.2,0.1,0.3,0.1,0.4,0.1c0.2,0,0.3-0.1,0.4-0.2c0.1-0.1,0.1-0.1,0.2-0.1c0.2-0.1,0.4-0.1,0.7-0.1
				c0.6,0,1.3,0.2,1.8,0.4c0.4,0.1,0.6,0.2,0.9,0.2c0.6,0,0.9-0.3,1.4-0.7c0.1-0.1,0.2-0.1,0.3-0.1c0.3,0,0.8,0.3,1.4,0.3
				c0.1,0,0.3,0,0.4-0.1l0.4-0.2l-0.4-0.3c-0.1-0.1-0.1-0.1-0.1-0.1c0,0,0-0.1,0.1-0.2c0.1-0.1,0.3-0.2,0.4-0.2c0.1,0,0.2,0,0.3,0
				c0.3,0,0.7,0.1,1.2,0.1c0.1,0,0.2,0,0.2,0c1.4-0.2,2.5-1.1,3.5-1.9c1.3-1,2.5-2,3.7-3c1-0.8,1.6-2,2.5-2.7c1.2-1,2.1-1.8,3-3.1
				c0.5-0.7,0.9-1.4,1.3-2.2c0.2-0.4,0.7-0.8,0.9-1.4c0.3-0.9,0.9-1.7,1.6-2.5c0.2-0.2,0.5-0.6,0.6-0.6c0.1,0,0.2,0,0.4-0.1
				c0.1,0,0.2-0.1,0.3-0.1c0.1-0.1,0.1-0.1,0.1-0.2c0.6-0.1,0.9-0.5,1.2-1c0.3-0.5,0.4-1.1,0.5-1.5c0.4-1.5,0.8-2.8,1.2-4.4
				c0.2-0.1,0.3-0.3,0.4-0.5c0.1-0.3,0.1-0.5,0.1-0.8c0-0.5,0-0.9,0-1.3c0-0.1,0-0.2,0-0.2l-0.5-0.1c0,0.1,0,0.1-0.1,0.1
				c0,0,0,0,0,0c-0.1,0-0.3-0.2-0.4-0.4c0,0-0.1-0.1-0.1-0.1c0.1-0.1,0.2-0.2,0.3-0.3c0.2-0.2,0.2-0.5,0.4-0.7
				c0.2-0.5,0.7-0.7,1.2-1c1.1-0.7,2.3-1.1,3.5-1.6c1.1-0.4,2.3-0.8,3.1-1.7c0.4-0.5,1.1-1.3,1.1-2.1c0-0.2,0-0.4-0.2-0.6l-0.3-0.5
				c0.2-0.7,0.6-1.5,0.7-2.3c0-0.1,0-0.1,0-0.1c0-0.5-0.2-0.8-0.2-1.1c0,0,0,0,0-0.1c0-0.5,0.2-0.9,0.2-1.4l-0.1,0
				c0-0.1,0-0.2,0.1-0.2v-0.1l-0.1-0.8l-0.5,0.6c0,0,0,0-0.1,0.1c0-0.4-0.1-0.7-0.1-1c-0.1-0.7-0.4-1.3-0.4-1.8c0-0.1,0-0.2,0-0.3
				l-0.1,0c0-0.2,0-0.6-0.2-0.7v0c0.3-0.4,0.2-0.9-0.1-1.3c-0.2-0.3-0.5-0.4-0.6-0.5c-0.1-0.1-0.1-0.1-0.1-0.4c0-0.1,0-0.1,0-0.2
				c0,0,0-0.1,0-0.2c0-0.1,0-0.2,0-0.3c0.1-0.1,0.1-0.1,0.2-0.2c0.1-0.1,0.1-0.3,0.1-0.5c0-0.1,0-0.3-0.1-0.4c0,0,0.1,0,0.1,0
				c0.3,0,0.6-0.2,0.8-0.4c0.2-0.2,0.4-0.4,0.5-0.5c0.5-0.5,0.9-1,1.3-1.5c0.3-0.5,0.8-0.8,1.4-1.1c0.1,0.1,0.1,0.1,0.2,0.1
				c0.2,0,0.2-0.1,0.3-0.1c0,0,0,0,0,0c0,0,0,0,0,0l0.2-0.1l0.2,0.2c0.1-0.1,0.2-0.2,0.2-0.3l0.1,0l-0.1-0.3c0,0,0-0.1,0-0.1
				c0-0.3,0.3-0.7,0.8-1c0.4-0.4,1-0.7,1-1.3c0-0.1,0-0.2,0-0.3c0.4-0.1,0.7-0.3,0.9-0.6c0.3-0.3,0.6-0.6,0.8-0.7
				c0.6-0.3,1.3-0.5,1.8-1c0.2-0.2,0.2-0.1,0.2-0.1c0,0,0.2,0,0.4-0.1c0.3-0.1,0.6-0.2,0.9-0.4c0.1,0,0.5-0.2,0.9-0.3
				c0.2-0.1,0.4-0.1,0.6-0.2c0.1,0,0.2-0.1,0.2-0.1c0.1-0.1,0.2-0.1,0.2-0.3c0,0,0,0,0,0l0,0c0,0,0,0,0,0c0.1-0.2,0.6-0.4,1-0.7
				c0.4-0.3,0.9-0.5,1.1-0.8c0,0,0,0,0,0l0.2,0.3l0.2-0.5c0.1-0.2,0.1-0.3,0.1-0.5c0.3-0.3,0.6-0.6,0.8-1.1c0.3-0.6,1-1,1.4-1.8
				c0.1-0.1,0.3-0.6,0.3-1c0-0.1,0-0.2-0.1-0.3c0,0,0.1-0.1,0.1-0.1c0.1-0.1,0.1-0.2,0.1-0.3c0,0,0-0.1,0-0.1l0.1-0.3c0,0,0,0,0,0
				c0.1-0.1,0.2-0.3,0.3-0.5c0.1-0.3,0-0.5,0.1-0.8c0-0.1,0-0.1,0-0.2c0-0.3-0.2-0.5-0.4-0.6c0-0.2,0.1-0.3,0.1-0.5
				c0-0.1,0-0.1-0.1-0.2c0-0.1-0.2-0.1-0.2-0.1c0-0.4,0.1-1,0.1-1.5c0-0.2,0-0.4-0.1-0.5c0-0.1-0.1-0.3-0.3-0.4
				c0-0.1,0.1-0.3,0.1-0.5c0.1-0.3,0.2-0.6,0.2-0.9c0-0.1,0-0.3-0.1-0.4c0,0-0.1-0.1-0.1-0.1c0.1-0.2,0.2-0.5,0.2-0.8
				c0-0.1,0-0.2,0-0.4c0-0.1-0.1-0.3-0.2-0.3c0-0.1,0-0.1,0-0.1c0,0,0,0,0,0c0-0.1,0.1-0.2,0.1-0.4c0-0.1,0-0.1,0-0.2l0,0l0,0
				c0-0.1,0-0.2,0-0.2c0,0,0,0,0-0.1c0-0.1,0.1-0.2,0.1-0.4c0-0.1,0-0.2,0-0.3c0-0.2,0-0.5,0-0.7c0-0.2,0-0.6,0-0.9
				c0-0.4,0-0.7-0.3-0.9c0,0,0.1-0.1,0.1-0.1c0.1-0.1,0.2-0.2,0.3-0.3c0.1-0.3,0.1-0.5,0.1-0.7c0-0.2,0-0.3,0.1-0.5l0.2-0.2
				l-0.2-0.1c0.1-0.1,0.1-0.3,0.1-0.4c0-0.3-0.2-0.6-0.5-0.7c0,0,0,0,0-0.1c0-0.4-0.2-0.7-0.5-0.9c-0.3-0.2-0.6-0.4-0.9-0.4
				c0,0-0.1,0-0.1,0c0-0.1-0.1-0.1-0.1-0.2c-0.1-0.1-0.2-0.2-0.4-0.3c0,0,0-0.1,0-0.1c0-0.2-0.1-0.4-0.2-0.5c0,0,0,0,0,0
				c0,0,0-0.1,0.1-0.3c0,0,0-0.1,0-0.1c-0.1-0.3-0.2-0.4-0.3-0.5c-0.1-0.1-0.1-0.2-0.1-0.2c0,0,0,0,0-0.1c0.1-0.1,0.2-0.4,0.2-0.6
				c0-0.1,0-0.2-0.1-0.3c-0.1-0.1-0.2-0.1-0.4-0.1c0-0.1,0-0.2-0.1-0.3c0-0.1,0-0.2-0.1-0.2c0-0.1,0.1-0.1,0-0.2
				c0-0.3-0.1-0.5-0.2-0.7c-0.1-0.2-0.2-0.4-0.2-0.5c0-0.1,0-0.1,0-0.2c0-0.4,0.1-0.8,0.3-1.2c0.1-0.2,0.1-0.4,0.1-0.7
				c0-0.2,0-0.3-0.1-0.5c0-0.1-0.1-0.3-0.3-0.3c0-0.2,0.1-0.5,0.1-0.7c0-0.4,0.1-0.7,0.3-1c0.2-0.3,0.3-0.6,0.3-0.9
				c0-0.2,0-0.4-0.1-0.5c-0.1-0.2-0.5-1.2-0.5-1.2s0.4,0,0.4,0c-0.1-0.5-0.5-0.8-0.8-1.1c-0.4-0.3-0.6-0.5-0.6-0.8c0,0,0-0.1,0-0.1
				c0,0,0-0.1,0-0.1c0-0.4-0.2-0.6-0.2-0.7v0c0-0.2,0.1-0.4,0.1-0.5c0.1-0.4,0.3-0.8,0.5-1.2c0.4-0.8,0.7-1.8,0.9-2.7c0,0,0,0,0-0.1
				c0,0,0,0,0-0.1c0.1,0,0.1-0.1,0.2-0.1c0,0,0,0,0,0l0.4,0.2l0.1-0.4c0.1-0.6,0.9-1.1,0.9-2c0,0,0,0.9,0,0.9s-0.3-0.2-0.2-0.4
				c0.2-0.3,0.3-0.8,0.4-1.2c0.1-0.4,0.3-0.8,0.3-0.8c0.2-0.1,0.3-0.4,0.5-0.7c0.2-0.3,0.3-0.6,0.3-0.9c0-0.1,0-0.1,0-0.2
				c0-0.1-0.1-0.3-0.1-0.4c0-0.4,0.2-0.7,0.7-0.8c0.4,0,1-0.7,1-0.7s0,0.2,0,0.2l0,0.2l0.4-0.4c0.1-0.2,0.2-0.4,0.2-0.5
				c0-0.2,0-0.3-0.1-0.5l0,0c0,0,0,0,0,0c0.1,0,0.2,0,0.3,0c0.7,0,1.2-0.6,1.5-1c0.1-0.1,0.1-0.2,0.2-0.4c0.5-0.7,1.1-1.5,1.3-2.5
				c0.1,0,0.2-0.1,0.3-0.2c0.3-0.3,0.6-0.7,0.7-0.9c0.4-0.5,0.7-1,1.1-1.5c0.8-1,1.6-1.9,2.4-2.9c0.8-1,1.8-1.9,2.7-2.8
				c0.8-0.8,1.7-1.4,2.7-2c2.3-1.5,4.1-3.2,5.8-5.3c0.9-1,1.7-2.1,2.5-3.1c0.8-1,1.2-2.2,1.9-3.2c0.7-1,1.4-2.1,1.9-3.3
				c0.5-1.2,0.5-2.4,1.1-3.4c0.4-0.8,1.1-1.5,1.4-2.5c0.2-0.5,0-0.9,0.2-1.2c0.1-0.3,0.4-0.3,0.7-0.7c0.7-0.9,0.6-2,1.1-2.6
				c0.4-0.6,0.9-1.3,1.2-2.1c0.2-0.6,0.2-1.2,0.2-1.8c0-0.3,0-0.2,0-0.5c0,0,0,0,0-0.1c0-0.2,0.1-0.3,0.1-0.3c0.1,0,0.2-0.1,0.4-0.1
				c0.1,0,0.2,0,0.3,0c0.1,0,0.3,0,0.4-0.1c0.2-0.1,0.3-0.2,0.4-0.4l0.1-0.3L267.2,179.1L267.2,179.1z"/>
			<path id="path355_1_"  class="st5" d="M54.7,176.1L54.7,176.1c0-0.1,0-0.2,0-0.2l0-0.4l-0.3,0.2
				c-0.1,0.1-0.3,0.2-0.4,0.3l-0.4,0.4h0.6c0.1,0,0.2,0,0.3,0v-0.2c0,0,0.1,0,0.1-0.1L54.7,176.1z"/>
			<path id="polygon357_1_" class="st5" d="M54.4,174.5L54.4,174.5L54.4,174.5z"/>
			<path id="path359_1_"  class="st6" d="M54.6,176.4c-0.2,0-0.5,0.2-0.5,0.4
				c0,0.2,0.1,0.4,0.3,0.5l0.2-0.2l0.2,0.2v0c0.1-0.1,0.2-0.1,0.3-0.2l0.2-0.1l-0.1-0.2C55.1,176.6,54.8,176.4,54.6,176.4
				L54.6,176.4z"/>
			<path id="path361_1_"  class="st5" d="M55.7,175.2l-0.3,0c-0.1,0-0.2,0-0.3,0l0,0.3l-0.2-0.1
				c0,0.1-0.1,0.2-0.1,0.3l-0.1,0.2l0.2,0.1c0.1,0,0.2,0.1,0.3,0.1c0.3,0,0.5-0.3,0.5-0.5L55.7,175.2L55.7,175.2z"/>
			<path id="path363_1_"  class="st5" d="M56.1,175.9c-0.3,0.1-0.5,0.3-0.5,0.7c0,0,0,0.1,0,0.1
				l0.3,0l0.2,0.2c0.2-0.2,0.4-0.4,0.4-0.6l0.1-0.5L56.1,175.9L56.1,175.9z"/>
			<path id="path365_1_"  class="st5" d="M215.9,293.6l-0.5-0.1c-0.1,0.2-0.2,0.5-0.2,0.8
				c0,0.1,0,0.2,0.1,0.4l0.2-0.1l0.2,0.1l0,0c0.1-0.3,0.2-0.6,0.2-0.9C215.9,293.7,215.9,293.6,215.9,293.6z"/>
			<path id="polygon367_1_" class="st5" d="M127.9,201.2L127.9,201.2L127.9,201.2z"/>
			<path id="path369_1_"  class="st6" d="M229.2,239.8c0.1,0.1,0.2,0.1,0.3,0.1c0,0,0,0,0,0
				c0.3,0,0.4-0.2,0.4-0.3c0.1-0.1,0.1-0.3,0.1-0.5c0-0.1,0-0.3-0.1-0.4c0-0.1-0.2-0.3-0.3-0.3c0,0,0,0,0,0c0-0.5-0.1-1-0.3-1.4
				l-0.3-0.5l-0.2,0.6c0,0.1-0.1,0.2-0.2,0.4c-0.1,0.2-0.2,0.3-0.2,0.6c0,0.1,0,0.1,0,0.2C228.5,238.9,228.6,239.3,229.2,239.8
				L229.2,239.8z"/>
			<polygon id="polygon371_1_" class="st5" points="228.6,238.2 228.6,238.2 228.6,238.2 			"/>
			<path id="path373_1_"  class="st5" d="M229.9,245.2l0.3,0l0.2,0.2c0.1-0.1,0.3-0.2,0.4-0.3
				c0.2-0.1,0.3-0.3,0.3-0.6c0-0.1,0-0.2-0.1-0.3l-0.2-0.6l-0.3,0.6c0,0.1-0.2,0.2-0.3,0.3c-0.2,0.1-0.4,0.3-0.4,0.7
				C229.9,245.1,229.9,245.2,229.9,245.2L229.9,245.2z"/>
			<path id="path375_1_"  class="st6" d="M230.5,233.9l-0.3-0.1l0,0.3c0,0.1,0,0.2,0,0.3l0.3,0
				l-0.3,0h0c0,0.2,0.1,0.3,0.1,0.4c0,0,0,0.1,0,0.1l-0.7,0.1l0.6,0.4c0,0,0,0,0,0c-0.1,0.1-0.1,0.2-0.1,0.3c0,0.2,0.2,0.5,0.4,0.5
				c0.2,0,0.4-0.2,0.5-0.4c0.1-0.3,0.2-0.5,0.2-0.8C231.3,234.6,231,234.1,230.5,233.9L230.5,233.9z"/>
			<path id="path377_1_"  class="st6" d="M230.1,160.5c0.1,0.3,0.4,0.5,0.6,0.5
				c0.2,0.1,0.5,0.1,0.8,0.1c0.2,0,0.3,0,0.4,0l0.4,0l-0.2-0.3c-0.1-0.2-0.2-0.3-0.4-0.3c-0.2-0.1-0.4,0-0.5-0.1
				c-0.1,0-0.1,0-0.1-0.1c0,0,0-0.2-0.1-0.3c0-0.1-0.1-0.2-0.1-0.3c-0.1-0.1-0.2-0.2-0.3-0.2c-0.1,0-0.2,0-0.3,0.1l0.1,0.2l-0.3,0
				c0,0.1,0,0.1,0,0.2l-0.5-0.4L230.1,160.5L230.1,160.5z"/>
			<path id="path379_1_"  class="st6" d="M26.7,156.3L26.7,156.3c-0.1,0-0.1,0-0.2-0.1l0,0
				c-0.1-0.1-0.2-0.3-0.2-0.5l0,0c0-0.5,0.5-0.9,0.9-0.9l0,0c0.2,0,0.5,0.1,0.5,0.4l0,0c0,0.1,0,0.1,0,0.2l0,0
				c0,0.3-0.2,0.5-0.4,0.7l0,0C27.2,156.2,27,156.3,26.7,156.3L26.7,156.3C26.7,156.3,26.7,156.3,26.7,156.3L26.7,156.3z"/>
			<path id="path381_1_"  class="st6" d="M27.4,156.8C27.4,156.8,27.4,156.8,27.4,156.8L27.4,156.8
				C27.4,156.8,27.4,156.8,27.4,156.8L27.4,156.8C27.4,156.8,27.4,156.8,27.4,156.8L27.4,156.8C27.4,156.8,27.4,156.8,27.4,156.8
				L27.4,156.8C27.4,156.7,27.4,156.7,27.4,156.8L27.4,156.8L27.4,156.8L27.4,156.8C27.4,156.7,27.4,156.7,27.4,156.8L27.4,156.8
				C27.4,156.7,27.4,156.7,27.4,156.8L27.4,156.8C27.4,156.7,27.4,156.7,27.4,156.8L27.4,156.8C27.4,156.7,27.4,156.7,27.4,156.8
				L27.4,156.8C27.4,156.7,27.4,156.7,27.4,156.8L27.4,156.8C27.4,156.7,27.4,156.7,27.4,156.8L27.4,156.8L27.4,156.8L27.4,156.8
				C27.4,156.7,27.4,156.7,27.4,156.8L27.4,156.8L27.4,156.8L27.4,156.8c-0.1-0.1-0.1-0.1-0.1-0.1l0,0c0,0,0,0,0,0l0,0c0,0,0,0,0,0
				l0,0l0,0l0,0c0-0.1-0.1-0.2-0.1-0.3l0,0c0-0.1,0-0.2,0.1-0.3l0,0c0.1-0.1,0.2-0.1,0.3-0.1l0,0c0.1,0,0.2,0.1,0.3,0.1l0,0
				c0.1,0.1,0.2,0.2,0.2,0.3l0,0c0,0.1-0.1,0.3-0.2,0.3l0,0c-0.1,0.1-0.2,0.1-0.4,0.1l0,0c0,0,0,0,0,0l0,0
				C27.5,156.8,27.5,156.8,27.4,156.8L27.4,156.8z"/>
			<path id="path383_1_"  class="st6" d="M29,163.8c-0.3-0.2-0.4-0.4-0.4-0.7l0,0
				c0-0.1,0-0.3,0.1-0.4l0,0c0.1-0.1,0.2-0.2,0.4-0.2l0,0c0.1,0,0.2,0,0.3,0.1l0,0c0.2,0.1,0.3,0.3,0.2,0.5l0,0
				c0,0.3-0.2,0.6-0.4,0.7l0,0c0,0,0,0,0,0l0,0c0,0,0,0,0,0l0,0c0,0-0.1,0-0.1,0l0,0C29.1,163.9,29.1,163.9,29,163.8L29,163.8z"/>
			<path id="path385_1_"  class="st6" d="M29.6,156.7L29.6,156.7L29.6,156.7L29.6,156.7L29.6,156.7
				L29.6,156.7L29.6,156.7L29.6,156.7L29.6,156.7L29.6,156.7L29.6,156.7L29.6,156.7L29.6,156.7L29.6,156.7L29.6,156.7L29.6,156.7
				L29.6,156.7c0,1.1,0,1.1,0,1.1l0,0c0,0,0,0,0,0l0,0c0,0,0,0,0,0h0c0,0-0.1,0-0.1-0.1l0,0c0,0,0,0,0,0l0,0c0,0,0,0,0,0l0,0
				c0,0-0.1-0.1-0.1-0.1l0,0c-0.1-0.2-0.2-0.4-0.3-0.6l0,0c0-0.1,0-0.1,0-0.2l0,0c0-0.1,0.1-0.1,0.2-0.2l0,0
				C29.4,156.7,29.5,156.7,29.6,156.7L29.6,156.7c0.4,0,0.8,0.1,1,0.3l0,0c0.1,0,0.1,0.1,0.1,0.2l0,0c0,0.1,0,0.1,0,0.2l0,0
				c-0.1,0.2-0.3,0.3-0.5,0.3l0,0c-0.2,0-0.4-0.1-0.4,0.6l0,0h0c0-0.7,0-0.6,0-0.6l0,0c0,0,0,0,0,0l0,0l0,0c0,0.1,0,0.1-0.1,0.2l0,0
				c0,0,0,0,0,0l0,0l0,0l0,0c0,0-0.1,0-0.1,0.1l0,0c0,0,0,0,0,0l0,0C29.7,157.9,29.7,157.9,29.6,156.7L29.6,156.7L29.6,156.7
				L29.6,156.7L29.6,156.7L29.6,156.7L29.6,156.7L29.6,156.7L29.6,156.7L29.6,156.7L29.6,156.7L29.6,156.7L29.6,156.7L29.6,156.7
				L29.6,156.7z"/>
			<path id="path387_1_"  class="st6" d="M31.9,163.5c-0.3,0-0.6-0.1-0.7-0.3l0,0
				c-0.2-0.2-0.2-0.4-0.2-0.7l0,0c0-0.3,0.1-0.6,0.2-0.9l0,0c0-0.1,0.1-0.2,0.2-0.2l0,0c0.1,0,0.2,0,0.2,0.1l0,0
				c0.1,0.1,0.2,0.3,0.4,0.5l0,0c0.2,0.2,0.3,0.4,0.3,0.8l0,0c0,0.2-0.1,0.4-0.2,0.5l0,0c0,0,0,0,0,0l0,0l0,0c0,0,0,0,0,0l0,0h0l0,0
				c0,0,0,0,0,0l0,0c0,0,0,0,0,0l0,0l0,0l0,0C32,163.5,32,163.5,31.9,163.5L31.9,163.5C31.9,163.5,31.9,163.5,31.9,163.5L31.9,163.5
				L31.9,163.5z"/>
			<path id="path389_1_"  class="st6" d="M32.9,162.7c-0.2-0.1-0.3-0.3-0.3-0.5l0,0
				c0-0.2,0.1-0.3,0.2-0.4l0,0c0.1-0.1,0.2-0.1,0.4-0.1l0,0c0.1,0,0.2,0,0.3,0.1l0,0c0.1,0.1,0.2,0.2,0.2,0.3l0,0
				c0,0.2-0.1,0.4-0.3,0.6l0,0c0,0,0,0-0.1,0.1l0,0c0,0,0,0,0,0l0,0c0,0,0,0,0,0l0,0c0,0-0.1,0-0.1,0l0,0
				C33,162.8,32.9,162.8,32.9,162.7L32.9,162.7L32.9,162.7z"/>
			<path id="path391_1_"  class="st6" d="M33.8,159.7c-0.2,0-0.3,0-0.5-0.2l0,0
				c-0.1-0.1-0.2-0.3-0.2-0.4l0,0c0-0.3,0.1-0.5,0.1-0.6l0,0c0,0,0,0,0,0l0,0c0-0.1,0-0.2,0.1-0.2l0,0c0.1-0.1,0.2-0.1,0.2,0l0,0
				c0.2,0.1,0.3,0.1,0.5,0.3l0,0c0.2,0.1,0.3,0.3,0.3,0.5l0,0c0,0.3-0.2,0.5-0.5,0.6l0,0C33.9,159.7,33.8,159.7,33.8,159.7
				L33.8,159.7C33.8,159.7,33.8,159.7,33.8,159.7L33.8,159.7z"/>
			<path id="path393_1_"  class="st6" d="M33.4,157.5C33.4,157.5,33.4,157.5,33.4,157.5L33.4,157.5
				C33.4,157.5,33.4,157.5,33.4,157.5L33.4,157.5C33.4,157.5,33.4,157.5,33.4,157.5L33.4,157.5C33.4,157.5,33.4,157.5,33.4,157.5
				L33.4,157.5c-0.1,0-0.1,0-0.1-0.1l0,0c0,0,0,0,0,0l0,0c0,0,0,0,0,0l0,0c0,0,0,0,0,0l0,0l0,0l0,0c0,0,0,0,0-0.1l0,0c0,0,0,0,0,0
				l0,0v0l0,0c0,0,0-0.1,0-0.1l0,0c0,0,0,0,0,0v0c0,0,0,0,0,0l0,0c0-0.1-0.1-0.3-0.1-0.6l0,0c0-0.2,0.1-0.4,0.3-0.5l0,0
				c0.1-0.1,0.2-0.1,0.2,0l0,0c0.1,0,0.1,0.1,0.2,0.2l0,0c0,0.2,0.1,0.3,0.1,0.5l0,0c0,0.2,0,0.4-0.2,0.6l0,0c0,0.1-0.1,0.1-0.2,0.1
				l0,0l0,0l0,0c0,0,0,0,0,0l0,0c0,0,0,0,0,0l0,0c0,0,0,0,0,0l0,0C33.5,157.5,33.5,157.5,33.4,157.5L33.4,157.5
				C33.5,157.5,33.5,157.5,33.4,157.5L33.4,157.5L33.4,157.5z"/>
			<path id="path395_1_"  class="st6" d="M241.8,259.5C241.8,259.5,241.8,259.5,241.8,259.5
				L241.8,259.5C241.8,259.5,241.8,259.5,241.8,259.5L241.8,259.5L241.8,259.5L241.8,259.5C241.7,259.5,241.7,259.5,241.8,259.5
				L241.8,259.5C241.7,259.5,241.7,259.5,241.8,259.5L241.8,259.5C241.7,259.5,241.7,259.5,241.8,259.5L241.8,259.5
				c-0.1,0-0.1,0-0.2-0.1l0,0c0,0,0,0,0,0l0,0c0,0,0,0,0,0l0,0c-0.1-0.1-0.2-0.2-0.4-0.3l0,0c-0.2-0.1-0.4-0.3-0.4-0.6l0,0
				c0-0.1,0-0.2,0.1-0.3l0,0c0,0,0-0.2,0-0.4l0,0c0-0.2,0-0.4,0.2-0.6l0,0c0.1-0.1,0.3-0.2,0.5-0.2l0,0c0,0,0,0,0,0l0,0
				c0.1,0,0.2,0.1,0.2,0.2l0,0c0.2,0.6,0,1,0.2,1.3l0,0c0,0.1,0.1,0.3,0.1,0.5l0,0c0,0.1,0,0.3-0.2,0.4l0,0c0,0,0,0,0,0l0,0
				c0,0,0,0,0,0l0,0h0l0,0c0,0,0,0,0,0l0,0c0,0,0,0,0,0l0,0c0,0,0,0,0,0l0,0c0,0,0,0,0,0l0,0l0,0l0,0c0,0,0,0,0,0l0,0h0l0,0
				C241.9,259.5,241.8,259.5,241.8,259.5L241.8,259.5C241.8,259.5,241.8,259.5,241.8,259.5L241.8,259.5L241.8,259.5z"/>
			<path id="path397_1_"  class="st6" d="M242.9,260.9c-0.1,0-0.3,0-0.5-0.1l0,0
				c-0.2-0.1-0.4-0.3-0.4-0.6l0,0c0-0.1,0.1-0.2,0.2-0.3l0,0c0.1,0,0.1,0,0.2,0l0,0c0.4,0,0.7,0.3,0.8,0.6l0,0c0,0,0,0,0,0l0,0l0,0
				c0,0.1,0,0.1,0,0.2l0,0c0,0,0,0,0,0l0,0c0,0,0,0,0,0l0,0c0,0,0,0,0,0l0,0c0,0,0,0,0,0l0,0c0,0,0,0.1-0.1,0.1l0,0c0,0,0,0,0,0l0,0
				c0,0,0,0,0,0l0,0c0,0,0,0,0,0l0,0l0,0l0,0c0,0,0,0,0,0l0,0c0,0,0,0,0,0l0,0c0,0,0,0,0,0l0,0l0,0l0,0c0,0,0,0,0,0l0,0l0,0l0,0
				c0,0,0,0,0,0l0,0c0,0,0,0,0,0l0,0c0,0,0,0,0,0l0,0c0,0,0,0,0,0l0,0c0,0,0,0,0,0l0,0c0,0,0,0,0,0l0,0l0,0l0,0c0,0,0,0,0,0l0,0
				c0,0,0,0,0,0l0,0c0,0,0,0,0,0l0,0c0,0,0,0,0,0l0,0C243,260.9,243,260.9,242.9,260.9L242.9,260.9C243,261,243,261,242.9,260.9
				L242.9,260.9C243,260.9,242.9,260.9,242.9,260.9L242.9,260.9L242.9,260.9z"/>
			<path id="path399_1_"  class="st6" d="M245,261.1C245,261.1,245,261.1,245,261.1L245,261.1
				L245,261.1L245,261.1C245,261.1,245,261.1,245,261.1L245,261.1C245,261.1,245,261.1,245,261.1L245,261.1
				C244.9,261.1,244.9,261.1,245,261.1L245,261.1C244.9,261.1,244.9,261.1,245,261.1L245,261.1C244.9,261.1,244.9,261.1,245,261.1
				L245,261.1C244.9,261.1,244.9,261.1,245,261.1L245,261.1C244.9,261.1,244.9,261.1,245,261.1L245,261.1c-0.1,0-0.1-0.1-0.1-0.1
				l0,0c-0.2-0.3-0.5-0.4-0.8-0.7l0,0c-0.1-0.1-0.1-0.2-0.1-0.3l0,0c0.1-0.1,0.2-0.2,0.3-0.1l0,0c0.1,0,0.3,0,0.4,0l0,0
				c0.2,0,0.3,0,0.5,0.1l0,0c0.1,0.1,0.2,0.3,0.2,0.4l0,0c0,0.1,0,0.3-0.1,0.5l0,0c0,0,0,0,0,0l0,0v0c0,0,0,0.1-0.1,0.1l0,0
				c0,0,0,0,0,0l0,0c0,0,0,0,0,0l0,0c0,0,0,0,0,0l0,0c0,0,0,0,0,0l0,0c0,0-0.1,0-0.1,0l0,0c0,0,0,0,0,0l0,0c0,0,0,0,0,0l0,0
				c0,0,0,0,0,0l0,0l0,0l0,0C245.1,261.1,245.1,261.1,245,261.1L245,261.1C245,261.1,245,261.1,245,261.1L245,261.1L245,261.1z"/>
			<path id="path401_1_"  class="st6" d="M284,290.2c0,0-0.1,0-0.1,0l0,0c-0.1,0-0.3-0.1-0.4-0.2
				l0,0c-0.1-0.1-0.1-0.2-0.1-0.4l0,0c0-0.3,0.2-0.7,0.4-1l0,0c0.2-0.3,0.4-0.6,0.5-0.7l0,0l0,0c0,0,0.1-0.1,0.1-0.1l0,0
				c0.1,0,0.1,0,0.1,0l0,0c0.2,0,0.4,0.2,0.5,0.3l0,0c0.1,0.2,0.1,0.4,0.1,0.6l0,0c0,0.3-0.1,0.7-0.3,0.9l0,0
				C284.7,290,284.4,290.2,284,290.2L284,290.2C284,290.2,284,290.2,284,290.2L284,290.2L284,290.2z"/>
			<path id="path403_1_"  class="st4" d="M125.6,216.7C125.6,216.7,125.6,216.7,125.6,216.7
				L125.6,216.7C125.6,216.7,125.6,216.7,125.6,216.7L125.6,216.7C125.6,216.6,125.5,216.6,125.6,216.7L125.6,216.7
				c0-0.1,0-0.1-0.1-0.1l0,0c0-0.2-0.1-0.5-0.1-0.7l0,0c0-0.3,0.2-0.8,0.7-0.9l0,0c0,0,0.1,0,0.1,0l0,0c0.2,0,0.4,0.2,0.4,0.3l0,0
				c0.1,0.1,0.1,0.3,0.1,0.4l0,0c0,0.1,0,0.2,0,0.3l0,0c-0.1,0.4-0.5,0.7-0.8,0.9l0,0c0,0,0,0,0,0l0,0v0c0,0-0.1,0-0.1,0l0,0
				C125.7,216.8,125.6,216.7,125.6,216.7L125.6,216.7L125.6,216.7z"/>
			<path id="path405_1_"  class="st6" d="M128.4,211.4C128.4,211.4,128.4,211.4,128.4,211.4
				L128.4,211.4C128.4,211.4,128.4,211.4,128.4,211.4L128.4,211.4L128.4,211.4L128.4,211.4C128.4,211.3,128.4,211.3,128.4,211.4
				L128.4,211.4C128.4,211.3,128.4,211.3,128.4,211.4L128.4,211.4C128.4,211.3,128.4,211.3,128.4,211.4L128.4,211.4
				C128.4,211.3,128.4,211.3,128.4,211.4L128.4,211.4C128.4,211.3,128.4,211.3,128.4,211.4L128.4,211.4
				C128.4,211.3,128.4,211.3,128.4,211.4L128.4,211.4C128.4,211.3,128.4,211.3,128.4,211.4L128.4,211.4
				C128.4,211.3,128.4,211.3,128.4,211.4L128.4,211.4C128.4,211.3,128.4,211.3,128.4,211.4L128.4,211.4
				C128.4,211.3,128.4,211.3,128.4,211.4L128.4,211.4C128.4,211.3,128.4,211.3,128.4,211.4L128.4,211.4
				C128.4,211.3,128.4,211.3,128.4,211.4L128.4,211.4C128.4,211.3,128.4,211.3,128.4,211.4L128.4,211.4c-0.2-0.2-0.3-0.3-0.3-0.5
				l0,0c0-0.2,0.1-0.4,0.3-0.5l0,0c0.1,0,0.1-0.1,0.2,0l0,0c0.1,0,0.1,0.1,0.2,0.1l0,0c0.1,0.1,0.1,0.3,0.1,0.4l0,0
				c0,0.2-0.1,0.3-0.1,0.5l0,0c0,0,0,0,0,0l0,0c0,0,0,0,0,0l0,0c0,0,0,0,0,0l0,0c0,0,0,0,0,0l0,0c0,0,0,0,0,0l0,0c0,0,0,0,0,0l0,0
				c0,0,0,0,0,0l0,0c0,0,0,0,0,0l0,0l0,0l0,0c0,0-0.1,0-0.1,0.1l0,0l0,0l0,0c0,0,0,0,0-0.3l0,0l0,0l0,0l0,1.5l0,0c0-1.3,0-1.3,0-1.3
				l0,0c0,0,0,0,0,0l0,0C128.6,211.4,128.6,211.4,128.4,211.4L128.4,211.4C128.5,211.4,128.5,211.4,128.4,211.4L128.4,211.4
				L128.4,211.4z"/>
			<path id="path407_1_"  class="st6" d="M280.2,233.8c0-0.2-0.2-0.3-0.3-0.4l0,0
				c-0.1-0.1-0.1-0.2-0.1-0.3l0,0c0-0.1,0.1-0.2,0.2-0.2l0,0c0.1,0,0.1,0,0.2,0l0,0c0.2,0,0.4,0.1,0.5,0.3l0,0
				c0.1,0.2,0.1,0.3,0.1,0.5l0,0c0,0,0,0.1,0,0.1l0,0c0,0,0,0,0,0l0,0l0,0c0,0.1,0,0.1-0.1,0.1l0,0l0,0l0,0c0,0,0,0,0,0v0
				c0,0-0.1,0.1-0.1,0.1l0,0c0,0,0,0-0.1,0l0,0C280.3,234,280.2,233.9,280.2,233.8L280.2,233.8z"/>
			<path id="path409_1_"  class="st6" d="M55.7,100.1C55.7,100.1,55.7,100.1,55.7,100.1L55.7,100.1
				c-0.4-0.1-0.6-0.3-0.9-0.5l0,0c-0.1-0.1-0.1-0.2-0.1-0.3l0,0c0-0.3,0.2-0.4,0.5-0.5l0,0c0.1,0,0.2,0,0.3,0.1l0,0c0,0,0,0,0,0l0,0
				c0,0,0,0,0,0l0,0c0,0,0.2,0,0.4-0.1l0,0c0.1,0,0.3,0.1,0.5,0.2l0,0c0.1,0.1,0.2,0.3,0.2,0.4l0,0c0,0.4-0.4,0.6-0.6,0.6l0,0
				C55.8,100.1,55.8,100.1,55.7,100.1L55.7,100.1z"/>
			<path id="path411_1_"  class="st6" d="M51.2,117.5C51.2,117.5,51.2,117.5,51.2,117.5L51.2,117.5
				C51.2,117.5,51.2,117.5,51.2,117.5L51.2,117.5C51.2,117.5,51.2,117.5,51.2,117.5L51.2,117.5C51.2,117.4,51.2,117.4,51.2,117.5
				L51.2,117.5C51.2,117.4,51.2,117.4,51.2,117.5L51.2,117.5C51.2,117.4,51.2,117.4,51.2,117.5L51.2,117.5
				C51.2,117.4,51.2,117.4,51.2,117.5L51.2,117.5c-0.2-0.2-0.4-0.3-0.4-0.6l0,0c0-0.4,0.3-0.6,0.7-0.6l0,0c0.1,0,0.2,0,0.2,0l0,0
				c0.1,0,0.1,0.1,0.2,0.1l0,0c0,0.1,0,0.1,0,0.2l0,0c-0.1,0.3-0.2,0.5-0.4,0.7l0,0c0,0.1-0.1,0.1-0.2,0.1l0,0h0l0,0c0,0,0,0,0,0
				l0,0c0,0,0,0,0,0h0c0,0,0,0,0,0l0,0C51.3,117.5,51.3,117.5,51.2,117.5L51.2,117.5C51.3,117.5,51.2,117.5,51.2,117.5L51.2,117.5
				L51.2,117.5z"/>
			<path id="path413_1_"  class="st6" d="M51.8,114.9c-0.1,0-0.1-0.1-0.1-0.2l0,0
				c0,0-0.1-0.2-0.1-0.4l0,0c-0.1-0.2-0.1-0.4-0.1-0.6l0,0c0-0.2,0.2-0.5,0.5-0.6l0,0c0.1,0,0.1,0,0.2,0l0,0c0.2,0,0.4,0.1,0.5,0.3
				l0,0c0.1,0.2,0.1,0.3,0.1,0.5l0,0c0,0.3-0.1,0.6-0.2,0.8l0,0c0,0,0,0.1-0.1,0.1l0,0c-0.1,0.1-0.2,0.1-0.3,0.2l0,0
				c0,0-0.1,0-0.1,0l0,0C51.8,115,51.8,115,51.8,114.9L51.8,114.9L51.8,114.9z"/>
			<path id="path415_1_"  class="st6" d="M53.6,116.6C53.6,116.6,53.6,116.6,53.6,116.6L53.6,116.6
				C53.6,116.6,53.5,116.6,53.6,116.6L53.6,116.6C53.5,116.6,53.5,116.6,53.6,116.6L53.6,116.6c-0.2-0.2-0.3-0.4-0.3-0.6l0,0
				c0-0.1,0-0.3,0.1-0.4l0,0c0.1-0.1,0.2-0.2,0.4-0.2l0,0c0,0,0.1,0,0.1,0l0,0c0.3,0,0.5,0.3,0.5,0.5l0,0c0,0.3-0.3,0.6-0.6,0.7l0,0
				c0,0,0,0,0,0l0,0c0,0,0,0,0,0l0,0c0,0,0,0,0,0l0,0C53.6,116.7,53.6,116.6,53.6,116.6L53.6,116.6z"/>
			<path id="path417_1_"  class="st6" d="M55.3,116.7L55.3,116.7L55.3,116.7
				C55.2,116.7,55.2,116.7,55.3,116.7L55.3,116.7C55.2,116.7,55.2,116.7,55.3,116.7L55.3,116.7C55.2,116.7,55.2,116.7,55.3,116.7
				L55.3,116.7C55.2,116.7,55.2,116.7,55.3,116.7L55.3,116.7C55.2,116.7,55.2,116.7,55.3,116.7L55.3,116.7c-0.4-0.6-0.5-1-0.7-1.4
				l0,0c0-0.1,0-0.2,0-0.2l0,0c0-0.1,0.1-0.1,0.2-0.2l0,0c0.9-0.2,1.5-0.5,2.4-0.8l0,0c0.1,0,0.2,0,0.3,0.1l0,0
				c0.1,0.1,0.1,0.2,0,0.3l0,0c-0.3,0.7-1.1,1.9-2,2.3l0,0c0,0-0.1,0-0.1,0l0,0C55.3,116.8,55.3,116.7,55.3,116.7L55.3,116.7
				L55.3,116.7z"/>
			<path id="path419_1_"  class="st6" d="M58.6,117.6c-0.5-0.1-0.8-0.6-0.8-1l0,0
				c0-0.4,0.2-0.8,0.7-0.9l0,0c0.1,0,0.2,0,0.3,0l0,0c0.2,0,0.4,0.1,0.6,0.2l0,0c0.1,0.1,0.2,0.3,0.2,0.5l0,0c0,0.5-0.3,1-0.8,1.3
				l0,0c0,0,0,0,0,0l0,0c0,0,0,0,0,0l0,0C58.7,117.6,58.7,117.6,58.6,117.6L58.6,117.6C58.6,117.6,58.6,117.6,58.6,117.6L58.6,117.6
				L58.6,117.6z"/>
			<path id="path421_1_"  class="st6" d="M62.6,116L62.6,116L62.6,116L62.6,116L62.6,116L62.6,116
				L62.6,116C62.5,116.5,62.5,116.5,62.6,116L62.6,116L62.6,116L62.6,116L62.6,116L62.6,116L62.6,116L62.6,116c0,0.6,0,0.6,0,0.5
				l0,0h0l0,0c0,0,0,0,0,0l0,0h0l0,0c0,0,0,0,0,0l0,0c0,0,0,0,0,0l0,0c0,0,0,0,0,1l0,0l0,0l0,0c0,0,0-1,0-1l0,0c0,0,0,0,0,0l0,0
				c0,0,0,0,0,0l0,0c0,0,0,0,0,0l0,0c0,0,0,0,0,0l0,0c0,0,0,0,0,0l0,0c0,0,0,0,0,0h0c0,0,0,0,0,0l0,0h0l0,0c0,0,0,0,0,0l0,0
				c0,0,0,0,0,0l0,0c0,0,0,0,0,0l0,0l0,0l0,0c-0.1-0.1-0.2-0.1-0.3-0.2l0,0c-0.1-0.1-0.1-0.2-0.1-0.3l0,0c0-0.1,0.1-0.2,0.2-0.2l0,0
				c0.3-0.1,0.5-0.4,0.8-0.9l0,0c0.2-0.4,0.4-1,0.8-1.3l0,0c0.1-0.1,0.1-0.1,0.3-0.1l0,0c0.1,0,0.2,0.1,0.3,0.1l0,0
				c0,0.1,0.1,0.1,0.1,0.2l0,0c0,0.1,0,0.2,0,0.4l0,0c0,0.2,0,0.4,0,0.6l0,0c0,0.2,0,0.3-0.1,0.4l0,0c-0.2,0.4-0.5,0.6-0.8,0.8l0,0
				c-0.3,0.2-0.6,0.3-0.8,0.4l0,0c0,0,0,0,0,0l0,0c0,0,0,0,0,0l0,0c0,0,0,0,0,0l0,0c0,0,0,0,0,0l0,0c0,0,0,0,0,0l0,0
				C62.7,116.5,62.6,116.5,62.6,116L62.6,116L62.6,116L62.6,116L62.6,116L62.6,116L62.6,116L62.6,116L62.6,116L62.6,116L62.6,116
				L62.6,116L62.6,116L62.6,116L62.6,116z"/>
			<polygon id="polygon423_1_" class="st5" points="63.9,113.9 63.9,113.9 63.9,113.9 63.9,113.9 63.9,113.9 			"/>
			<path id="path425_1_"  class="st6" d="M64.3,113.7C64.3,113.7,64.3,113.7,64.3,113.7L64.3,113.7
				c-0.1,0-0.2-0.1-0.3-0.1l0,0c-0.1,0-0.1-0.1-0.1-0.1l0,0c0-0.1,0-0.1,0-0.2l0,0c0.1-0.2,0.3-0.4,0.5-0.7l0,0
				c0.2-0.3,0.5-0.5,0.8-0.5l0,0c0.2,0,0.4,0.2,0.4,0.3l0,0c0,0.1,0,0.1,0,0.2l0,0c0,0.4-0.3,0.6-0.6,0.7l0,0
				c-0.2,0.1-0.5,0.3-0.5,0.3l0,0c0,0,0,0-0.1,0l0,0c0,0,0,0,0,0l0,0c0,0,0,0,0,0l0,0c0,0,0,0,0,0l0,0c0,0,0,0,0,0l0,0c0,0,0,0,0,0
				l0,0c0,0,0,0,0,0l0,0c0,0,0,0,0,0l0,0l0,0l0,0c0,0,0,0,0,0l0,0l0,0l0,0c0,0,0,0,0,0l0,0c0,0,0,0,0,0l0,0c0,0,0,0,0,0l0,0
				C64.5,113.7,64.4,113.7,64.3,113.7L64.3,113.7C64.4,113.7,64.3,113.7,64.3,113.7L64.3,113.7L64.3,113.7z"/>
			<path id="path427_1_"  class="st6" d="M246.8,263.3C246.8,263.2,246.7,263.2,246.8,263.3
				L246.8,263.3c-0.2-0.3-0.2-0.5-0.2-0.7l0,0c0-0.3,0-0.5,0.1-0.7l0,0c0.1-0.1,0.2-0.2,0.3-0.1l0,0c0.3,0.1,0.4,0.4,0.4,0.6l0,0
				c0,0.3-0.2,0.6-0.3,0.8l0,0c-0.1,0.1-0.1,0.1-0.2,0.1l0,0C246.9,263.3,246.8,263.3,246.8,263.3L246.8,263.3L246.8,263.3z"/>
			<path id="path429_1_"  class="st6" d="M276.7,292.2c0-0.1,0-0.1,0-0.2l0,0
				c0-0.3,0.2-0.6,0.4-0.8l0,0c0.2-0.2,0.5-0.3,0.8-0.3l0,0c0.2,0,0.4,0,0.5,0.2l0,0c0.1,0.1,0.2,0.3,0.3,0.5l0,0
				c0.2,0.3,0.3,0.6,0.3,0.9l0,0c0,0.2-0.1,0.5-0.3,0.6l0,0c-0.2,0.1-0.4,0.2-0.6,0.2l0,0C277.5,293.3,276.8,292.9,276.7,292.2
				L276.7,292.2L276.7,292.2z"/>
			<path id="path431_1_"  class="st7" d="M84.4,279.1L84.4,279.1L84.4,279.1
				C84.4,279.1,84.4,279.1,84.4,279.1L84.4,279.1C84.4,279.1,84.4,279.1,84.4,279.1L84.4,279.1C84.4,279.1,84.4,279.1,84.4,279.1
				L84.4,279.1C84.4,279.1,84.4,279.1,84.4,279.1L84.4,279.1L84.4,279.1L84.4,279.1c-0.1,0-0.1,0-0.1-0.1l0,0
				c-0.1-0.1-0.2-0.3-0.2-0.5l0,0c0-0.2,0.1-0.4,0.3-0.5l0,0c0.1,0,0.1-0.1,0.2,0l0,0c0.1,0,0.1,0.1,0.2,0.1l0,0
				c0.1,0.1,0.1,0.3,0.1,0.4l0,0c0,0.2-0.1,0.3-0.1,0.5l0,0c0,0,0,0,0,0l0,0v0c0,0.1-0.1,0.1-0.2,0.1l0,0l0,0l0,0c0,0,0,0,0,0l0,0h0
				l0,0c0,0,0,0,0,0l0,0c0,0,0,0,0,0l0,0C84.5,279.1,84.5,279.1,84.4,279.1L84.4,279.1C84.4,279.1,84.4,279.1,84.4,279.1L84.4,279.1
				L84.4,279.1z"/>
		</g>
	</g>
	<use xlink:href="#SVGID_1_"  style="overflow:visible;fill:none;stroke:#000000;stroke-width:0.25;stroke-miterlimit:10;"/>
</g>
</svg>
